<?xml version="1.0" encoding="utf-8"?>
<!-- Generator: Adobe Illustrator 21.0.2, SVG Export Plug-In . SVG Version: 6.00 Build 0)  -->
<svg version="1.1" id="Layer_1" xmlns="http://www.w3.org/2000/svg" xmlns:xlink="http://www.w3.org/1999/xlink" x="0px" y="0px"
	 viewBox="0 0 500.3 500.3" enable-background="new 0 0 500.3 500.3" xml:space="preserve">
<g id="Layer_1-2">
	<rect x="0.1" y="0.1" fill="#C86029" stroke="#231F20" stroke-width="0.25" stroke-miterlimit="10" width="500" height="500"/>
</g>
<g id="Layer_3">
	<g>
		<path fill="#FFFFFF" d="M118.2,178.5l9.4,6l34.3,21.8l-0.4,0.2l0,0l0,0L119,233l42.5,26.1v65.5L250,375l88.7-50.4v-65.3l42.8-26.2
			l-42.6-26.4l43-27.3l-9.5-5.9l-78.6-48.8l-43.3,26.9L206,124L118.2,178.5z"/>
	</g>
</g>
<g id="Layer_2">
	<polygon fill="#C86029" stroke="#231F20" stroke-width="0.25" stroke-miterlimit="10" points="244.2,264.8 244.2,356.3 173.4,316 
		173.4,266.2 208.2,287.5 	"/>
	<polygon fill="#C86029" stroke="#231F20" stroke-width="0.25" stroke-miterlimit="10" points="256.1,264.6 292.4,287.6 327,266.4 
		327,316 256.1,356.3 	"/>
	<polygon fill="#C86029" stroke="#231F20" stroke-width="0.25" stroke-miterlimit="10" points="143.9,232.9 175.3,213.3 
		239.4,252.8 208.1,272.1 	"/>
	<polygon fill="#C86029" stroke="#231F20" stroke-width="0.25" stroke-miterlimit="10" points="261.8,252.9 325.3,213.4 
		356.8,232.9 292.7,272.2 	"/>
	<polygon fill="#C86029" stroke="#231F20" stroke-width="0.25" stroke-miterlimit="10" points="262.5,159.5 293.9,139.9 
		357.3,179.3 326.6,198.8 	"/>
	<polygon fill="#C86029" stroke="#231F20" stroke-width="0.25" stroke-miterlimit="10" points="142.8,178.7 206.2,139.3 
		237.6,158.8 173.4,198.1 	"/>
</g>
</svg>
