<?xml version="1.0" encoding="utf-8"?>
<!-- Generator: Adobe Illustrator 21.0.2, SVG Export Plug-In . SVG Version: 6.00 Build 0)  -->
<svg version="1.1" id="Layer_1" xmlns="http://www.w3.org/2000/svg" xmlns:xlink="http://www.w3.org/1999/xlink" x="0px" y="0px"
	 viewBox="0 0 500.2 500.2" enable-background="new 0 0 500.2 500.2" xml:space="preserve">
<g id="Layer_1-2">
	<rect x="0.1" y="0.1" fill="#497075" stroke="#231F20" stroke-width="0.25" stroke-miterlimit="10" width="500" height="500"/>
</g>
<g>
	<path fill="#FFFFFF" stroke="#FFFFFF" stroke-width="3" stroke-miterlimit="10" d="M201,123.1v42h-42v160.3l-5.2,4.7
		c-2.2,2-2.3,5.3-0.4,7.5l5.6,6.1v10.5h9.5l0.9,1c2,2.2,5.3,2.3,7.5,0.4l1.5-1.4h127.8v-42.1h42V123.1H201z M186.8,346.7l34.8-31.6
		c2.2-2,2.3-5.4,0.4-7.5l-16-17.7c-2-2.2-5.3-2.3-7.5-0.4l-31.9,28.9V172.9h131.8v35.8c0,0,0,0,0,0c-10.2-8.6-23.2-14-37.6-14
		c-32.4,0-58.7,26.3-58.7,58.6c0,32.4,26.3,58.7,58.7,58.7c14.4,0,27.4-5.4,37.6-14v48.7C298.4,346.7,186.8,346.7,186.8,346.7z
		 M260.8,296.1c-23.6,0-42.8-19.2-42.8-42.8c0-23.6,19.1-42.8,42.8-42.8c23.6,0,42.8,19.2,42.8,42.8
		C303.6,277,284.4,296.1,260.8,296.1z M340.5,304.6h-34.3v-14.4c0,0,0,0,0,0c8.2-10.1,13.3-22.8,13.3-36.9c0-14-5.1-26.7-13.3-36.8
		v-51.4h-97.4v-34.3h131.8C340.5,130.8,340.5,304.6,340.5,304.6z"/>
</g>
</svg>
