<svg id="Layer_1" data-name="Layer 1" xmlns="http://www.w3.org/2000/svg" viewBox="0 0 608.29 155.19"><defs><style>.cls-1{fill:#f7f7f8;}.cls-2,.cls-4,.cls-5{isolation:isolate;}.cls-3{fill:#155fae;}.cls-4,.cls-5{fill:none;stroke:#155fae;stroke-miterlimit:10;}.cls-4{stroke-width:0.75px;opacity:0.9;}.cls-5{opacity:0.7;}</style></defs><title>Foot_IACT</title><rect class="cls-1" width="608.29" height="155.19"/><g class="cls-2"><path class="cls-3" d="M455.92,57.95h-4.23V39.82h4.23Z"/><path class="cls-3" d="M459.28,57.95V45h2.39a1.07,1.07,0,0,1,.6.16.87.87,0,0,1,.34.49l.22.75a9.27,9.27,0,0,1,.77-.65,4.51,4.51,0,0,1,.85-.5,5.05,5.05,0,0,1,1-.32,5.29,5.29,0,0,1,1.15-.12,4.52,4.52,0,0,1,1.87.37,3.89,3.89,0,0,1,1.38,1,4.4,4.4,0,0,1,.85,1.56,6.46,6.46,0,0,1,.29,2v8.2h-3.86v-8.2a2.26,2.26,0,0,0-.44-1.47,1.57,1.57,0,0,0-1.28-.53,2.69,2.69,0,0,0-1.19.27,4.62,4.62,0,0,0-1.07.73v9.19Z"/><path class="cls-3" d="M478.24,58.15a4.55,4.55,0,0,1-1.62-.27,3.13,3.13,0,0,1-1.91-1.95,4.6,4.6,0,0,1-.25-1.56V47.71h-1.09a.7.7,0,0,1-.72-.76V45.45l2.05-.4.76-3.15a.77.77,0,0,1,.85-.6h2v3.77h3.14v2.64h-3.14v6.41a1.21,1.21,0,0,0,.22.74.74.74,0,0,0,.63.29,1.23,1.23,0,0,0,.35,0l.25-.1.2-.1a.51.51,0,0,1,.22,0,.45.45,0,0,1,.28.08,1,1,0,0,1,.22.25L481.84,57a5.33,5.33,0,0,1-1.68.84A6.67,6.67,0,0,1,478.24,58.15Z"/><path class="cls-3" d="M489.18,44.85a6.64,6.64,0,0,1,2.35.4,5.09,5.09,0,0,1,1.83,1.16,5.27,5.27,0,0,1,1.19,1.86,6.83,6.83,0,0,1,.43,2.49,5.53,5.53,0,0,1,0,.71,1.15,1.15,0,0,1-.14.44.53.53,0,0,1-.27.22,1.26,1.26,0,0,1-.43.06h-7.44a3.64,3.64,0,0,0,1,2.35,2.92,2.92,0,0,0,2.05.73,3.67,3.67,0,0,0,1.16-.16,5.79,5.79,0,0,0,.86-.36l.7-.36a1.45,1.45,0,0,1,.67-.16.8.8,0,0,1,.7.34l1.12,1.38A5.72,5.72,0,0,1,493.62,57a6.72,6.72,0,0,1-1.42.67,7.72,7.72,0,0,1-1.46.34,11,11,0,0,1-1.39.09,7.25,7.25,0,0,1-2.54-.44,5.84,5.84,0,0,1-2.08-1.31,6.18,6.18,0,0,1-1.41-2.16,8.1,8.1,0,0,1-.52-3,6.8,6.8,0,0,1,.44-2.45,6,6,0,0,1,3.27-3.41A6.62,6.62,0,0,1,489.18,44.85Zm.08,2.66a2.32,2.32,0,0,0-1.73.63,3.27,3.27,0,0,0-.82,1.81h4.81a3.4,3.4,0,0,0-.12-.9,2.17,2.17,0,0,0-.39-.78,2,2,0,0,0-.7-.55A2.41,2.41,0,0,0,489.26,47.51Z"/><path class="cls-3" d="M497.2,57.95V45h2.29a1.94,1.94,0,0,1,.48,0,.85.85,0,0,1,.32.16.66.66,0,0,1,.2.28,2.5,2.5,0,0,1,.12.42l.21,1.21a6.32,6.32,0,0,1,1.59-1.73,3.23,3.23,0,0,1,1.93-.63,2.22,2.22,0,0,1,1.42.42l-.5,2.84a.55.55,0,0,1-.2.37.68.68,0,0,1-.4.11,2.62,2.62,0,0,1-.5-.06,3.88,3.88,0,0,0-.72-.06A2.65,2.65,0,0,0,501.05,50v7.91Z"/><path class="cls-3" d="M507.22,48.83h6.72v3.11h-6.72Z"/><path class="cls-3" d="M532.55,57.95h-3.26a1.51,1.51,0,0,1-.9-.25,1.32,1.32,0,0,1-.49-.65l-1.07-3.16h-6.89L518.87,57a1.44,1.44,0,0,1-1.37.91h-3.29l7-18.13h4.3ZM520.91,51h5l-1.67-5-.38-1.11q-.22-.64-.43-1.39-.2.76-.41,1.41t-.4,1.12Z"/><path class="cls-3" d="M538.57,44.82a7.16,7.16,0,0,1,1.55.16,6.27,6.27,0,0,1,1.35.46h3.89v1.41a.7.7,0,0,1-.18.51,1.24,1.24,0,0,1-.62.29l-.95.21A3.87,3.87,0,0,1,543.8,49a3.69,3.69,0,0,1-.4,1.74,4,4,0,0,1-1.11,1.31,5.17,5.17,0,0,1-1.66.83,7,7,0,0,1-2.05.29,8.3,8.3,0,0,1-1.14-.07.7.7,0,0,0-.42.58.49.49,0,0,0,.34.47,3.18,3.18,0,0,0,.9.2,12.77,12.77,0,0,0,1.28.06q.72,0,1.47.07a11.48,11.48,0,0,1,1.47.23,3.92,3.92,0,0,1,1.28.52,2.74,2.74,0,0,1,.9,1,3.11,3.11,0,0,1,.34,1.54,3.74,3.74,0,0,1-.42,1.71A4.46,4.46,0,0,1,543.33,61a6.48,6.48,0,0,1-2,1,8.75,8.75,0,0,1-2.74.39,10.52,10.52,0,0,1-2.62-.29,6.36,6.36,0,0,1-1.83-.75,3.18,3.18,0,0,1-1.08-1.08A2.53,2.53,0,0,1,532.7,59a2.12,2.12,0,0,1,.52-1.45,3.48,3.48,0,0,1,1.43-.93,2.18,2.18,0,0,1-.7-.73,2.22,2.22,0,0,1-.26-1.13,2,2,0,0,1,.1-.6,2.19,2.19,0,0,1,.31-.62,3.09,3.09,0,0,1,.54-.57,3.5,3.5,0,0,1,.77-.48,4.22,4.22,0,0,1-1.59-1.42,3.93,3.93,0,0,1-.17-3.8A4,4,0,0,1,534.79,46a5.31,5.31,0,0,1,1.69-.83A7.27,7.27,0,0,1,538.57,44.82Zm2.86,13.57a.68.68,0,0,0-.19-.51,1.37,1.37,0,0,0-.52-.31,3.62,3.62,0,0,0-.77-.17,8.37,8.37,0,0,0-1-.05h-1.06a5.59,5.59,0,0,1-1.08-.11,2.53,2.53,0,0,0-.59.56,1.12,1.12,0,0,0-.23.69,1.05,1.05,0,0,0,.12.5,1,1,0,0,0,.42.39,2.78,2.78,0,0,0,.8.26,7.22,7.22,0,0,0,1.28.09,7.59,7.59,0,0,0,1.37-.1,2.86,2.86,0,0,0,.85-.28,1,1,0,0,0,.44-.43A1.19,1.19,0,0,0,541.44,58.39Zm-2.86-7.57a1.59,1.59,0,0,0,1.82-1.72,1.71,1.71,0,0,0-.43-1.23,2.37,2.37,0,0,0-2.77,0,1.71,1.71,0,0,0-.43,1.23,2.12,2.12,0,0,0,.11.68,1.43,1.43,0,0,0,.33.54,1.55,1.55,0,0,0,.57.36A2.29,2.29,0,0,0,538.57,50.82Z"/><path class="cls-3" d="M552.56,44.85a6.64,6.64,0,0,1,2.35.4,5.09,5.09,0,0,1,1.83,1.16,5.27,5.27,0,0,1,1.19,1.86,6.83,6.83,0,0,1,.43,2.49,5.53,5.53,0,0,1,0,.71,1.15,1.15,0,0,1-.14.44.53.53,0,0,1-.27.22,1.26,1.26,0,0,1-.43.06H550a3.64,3.64,0,0,0,1,2.35,2.92,2.92,0,0,0,2.05.73,3.67,3.67,0,0,0,1.16-.16,5.79,5.79,0,0,0,.86-.36l.7-.36a1.45,1.45,0,0,1,.67-.16.8.8,0,0,1,.7.34l1.12,1.38A5.72,5.72,0,0,1,557,57a6.72,6.72,0,0,1-1.42.67,7.72,7.72,0,0,1-1.46.34,11,11,0,0,1-1.39.09,7.25,7.25,0,0,1-2.54-.44,5.84,5.84,0,0,1-2.08-1.31,6.18,6.18,0,0,1-1.41-2.16,8.1,8.1,0,0,1-.52-3,6.8,6.8,0,0,1,.44-2.45,6,6,0,0,1,3.27-3.41A6.62,6.62,0,0,1,552.56,44.85Zm.08,2.66a2.32,2.32,0,0,0-1.73.63,3.27,3.27,0,0,0-.82,1.81h4.81a3.4,3.4,0,0,0-.12-.9,2.17,2.17,0,0,0-.39-.78,2,2,0,0,0-.7-.55A2.41,2.41,0,0,0,552.63,47.51Z"/><path class="cls-3" d="M560.57,57.95V45H563a1.07,1.07,0,0,1,.6.16.87.87,0,0,1,.34.49l.22.75a9.27,9.27,0,0,1,.77-.65,4.51,4.51,0,0,1,.85-.5,5.05,5.05,0,0,1,1-.32,5.29,5.29,0,0,1,1.15-.12,4.52,4.52,0,0,1,1.87.37,3.89,3.89,0,0,1,1.38,1,4.4,4.4,0,0,1,.85,1.56,6.46,6.46,0,0,1,.29,2v8.2h-3.86v-8.2a2.26,2.26,0,0,0-.44-1.47,1.57,1.57,0,0,0-1.28-.53,2.69,2.69,0,0,0-1.19.27,4.62,4.62,0,0,0-1.07.73v9.19Z"/><path class="cls-3" d="M584.31,48.11a2.15,2.15,0,0,1-.34.34.74.74,0,0,1-.46.12,1,1,0,0,1-.52-.14l-.52-.3a3.9,3.9,0,0,0-.67-.3,2.89,2.89,0,0,0-1-.14,2.68,2.68,0,0,0-1.22.26,2.26,2.26,0,0,0-.85.75,3.43,3.43,0,0,0-.5,1.19,7.12,7.12,0,0,0-.16,1.59,4.84,4.84,0,0,0,.71,2.85,2.3,2.3,0,0,0,2,1,2.75,2.75,0,0,0,1.06-.17,3.23,3.23,0,0,0,.67-.37l.5-.38a.93.93,0,0,1,.58-.17.8.8,0,0,1,.7.34l1.12,1.38A6.1,6.1,0,0,1,584.17,57a6.33,6.33,0,0,1-1.35.67,7,7,0,0,1-1.39.34,10.24,10.24,0,0,1-1.36.09,5.82,5.82,0,0,1-2.26-.45,5.53,5.53,0,0,1-1.89-1.3,6.23,6.23,0,0,1-1.29-2.1,7.85,7.85,0,0,1-.48-2.84,8,8,0,0,1,.42-2.61,5.93,5.93,0,0,1,1.23-2.1,5.75,5.75,0,0,1,2-1.4,7.07,7.07,0,0,1,2.78-.51,6.78,6.78,0,0,1,2.66.49,6.4,6.4,0,0,1,2.07,1.42Z"/><path class="cls-3" d="M592.37,61.3a1.1,1.1,0,0,1-1.22.75h-2.89l2.49-5.23L585.6,45H589a1.09,1.09,0,0,1,.7.2,1.07,1.07,0,0,1,.35.47l2.12,5.56a12.32,12.32,0,0,1,.48,1.54q.12-.4.27-.78c.1-.26.19-.52.29-.78l1.92-5.54a.94.94,0,0,1,.39-.48,1.12,1.12,0,0,1,.63-.19h3.11Z"/></g><g class="cls-2"><path class="cls-3" d="M463.49,79.31a.84.84,0,0,1,.3.06.81.81,0,0,1,.29.19l1.67,1.75A6.93,6.93,0,0,1,463,83.47a9.6,9.6,0,0,1-3.9.73,9.29,9.29,0,0,1-3.7-.7,8,8,0,0,1-2.77-1.94,8.54,8.54,0,0,1-1.75-2.94,10.84,10.84,0,0,1-.61-3.69,9.72,9.72,0,0,1,.7-3.73,8.59,8.59,0,0,1,4.94-4.85,10.43,10.43,0,0,1,3.84-.68,9.81,9.81,0,0,1,1.92.18,9.44,9.44,0,0,1,1.69.5,8,8,0,0,1,1.44.76,7,7,0,0,1,1.17,1L464.55,70a1.83,1.83,0,0,1-.32.32.84.84,0,0,1-.52.14.94.94,0,0,1-.42-.1l-.42-.24-.49-.31a3.81,3.81,0,0,0-.63-.31,5.28,5.28,0,0,0-.86-.24,5.89,5.89,0,0,0-1.15-.1,5.26,5.26,0,0,0-2.09.4A4.58,4.58,0,0,0,456,70.7,5.36,5.36,0,0,0,455,72.53a7.15,7.15,0,0,0-.38,2.4A7.47,7.47,0,0,0,455,77.4a5.44,5.44,0,0,0,1,1.82,4.38,4.38,0,0,0,1.52,1.13,4.56,4.56,0,0,0,1.87.39,9,9,0,0,0,1-.06,4.32,4.32,0,0,0,.88-.19,4.06,4.06,0,0,0,.77-.35,5.12,5.12,0,0,0,.74-.54,1.5,1.5,0,0,1,.32-.21A.85.85,0,0,1,463.49,79.31Z"/><path class="cls-3" d="M473.41,70.9a7.46,7.46,0,0,1,2.67.46,5.88,5.88,0,0,1,2.07,1.32,6,6,0,0,1,1.34,2.08,7.54,7.54,0,0,1,.48,2.76,7.67,7.67,0,0,1-.48,2.78,6,6,0,0,1-1.34,2.1,5.9,5.9,0,0,1-2.07,1.33,7.36,7.36,0,0,1-2.67.47,7.45,7.45,0,0,1-2.69-.47,6,6,0,0,1-2.09-1.33,5.9,5.9,0,0,1-1.36-2.1,7.65,7.65,0,0,1-.48-2.78,7.52,7.52,0,0,1,.48-2.76,5.85,5.85,0,0,1,1.36-2.08,6,6,0,0,1,2.09-1.32A7.55,7.55,0,0,1,473.41,70.9Zm0,10.44a2.19,2.19,0,0,0,2-.94,6.79,6.79,0,0,0,0-5.7,2.2,2.2,0,0,0-2-.93,2.25,2.25,0,0,0-2,.93,6.74,6.74,0,0,0,0,5.7A2.25,2.25,0,0,0,473.41,81.33Z"/><path class="cls-3" d="M487.84,70.9a7.46,7.46,0,0,1,2.67.46,5.88,5.88,0,0,1,2.07,1.32,6,6,0,0,1,1.34,2.08,7.54,7.54,0,0,1,.48,2.76,7.67,7.67,0,0,1-.48,2.78,6,6,0,0,1-1.34,2.1,5.9,5.9,0,0,1-2.07,1.33,7.36,7.36,0,0,1-2.67.47,7.45,7.45,0,0,1-2.69-.47,6,6,0,0,1-2.09-1.33,5.9,5.9,0,0,1-1.36-2.1,7.65,7.65,0,0,1-.48-2.78,7.52,7.52,0,0,1,.48-2.76,5.85,5.85,0,0,1,1.36-2.08,6,6,0,0,1,2.09-1.32A7.55,7.55,0,0,1,487.84,70.9Zm0,10.44a2.19,2.19,0,0,0,2-.94,6.79,6.79,0,0,0,0-5.7,2.2,2.2,0,0,0-2-.93,2.25,2.25,0,0,0-2,.93,6.74,6.74,0,0,0,0,5.7A2.25,2.25,0,0,0,487.84,81.33Z"/><path class="cls-3" d="M496.52,84V71.09h2.29a1.94,1.94,0,0,1,.48,0,.85.85,0,0,1,.32.16.66.66,0,0,1,.2.28,2.5,2.5,0,0,1,.12.42l.21,1.21a6.32,6.32,0,0,1,1.59-1.73,3.23,3.23,0,0,1,1.93-.63,2.22,2.22,0,0,1,1.42.42l-.5,2.84a.55.55,0,0,1-.2.37.68.68,0,0,1-.4.11,2.62,2.62,0,0,1-.5-.06,3.88,3.88,0,0,0-.72-.06,2.65,2.65,0,0,0-2.39,1.62V84Z"/><path class="cls-3" d="M515.86,84a1.07,1.07,0,0,1-.6-.16.87.87,0,0,1-.34-.49l-.3-1a7.51,7.51,0,0,1-.81.75,5.09,5.09,0,0,1-.91.58,4.85,4.85,0,0,1-1.06.37,5.46,5.46,0,0,1-1.23.13,4,4,0,0,1-1.87-.45,4.3,4.3,0,0,1-1.48-1.29,6.52,6.52,0,0,1-1-2.07,10.06,10.06,0,0,1-.35-2.79,8.71,8.71,0,0,1,.4-2.68,6.56,6.56,0,0,1,1.13-2.14,5.22,5.22,0,0,1,1.75-1.41,5,5,0,0,1,2.25-.51,4.33,4.33,0,0,1,1.69.29,4.87,4.87,0,0,1,1.25.77V65.37h3.86V84ZM512,81.23a3.31,3.31,0,0,0,.76-.08,2.71,2.71,0,0,0,.63-.23,2.75,2.75,0,0,0,.54-.37,4.7,4.7,0,0,0,.5-.52V74.55a2.55,2.55,0,0,0-1-.68,2.94,2.94,0,0,0-1.06-.19,2.27,2.27,0,0,0-1,.21,2,2,0,0,0-.78.68,3.6,3.6,0,0,0-.52,1.21,7.51,7.51,0,0,0-.19,1.8,8.35,8.35,0,0,0,.15,1.72,3.53,3.53,0,0,0,.42,1.13,1.62,1.62,0,0,0,.64.62A1.84,1.84,0,0,0,512,81.23Z"/><path class="cls-3" d="M525.66,67.56a2,2,0,0,1-.19.86,2.28,2.28,0,0,1-.51.71,2.5,2.5,0,0,1-.75.49,2.34,2.34,0,0,1-.91.18,2.17,2.17,0,0,1-.88-.18,2.48,2.48,0,0,1-.73-.49,2.23,2.23,0,0,1-.5-.71,2.1,2.1,0,0,1-.18-.86,2.17,2.17,0,0,1,.18-.88,2.28,2.28,0,0,1,.5-.72,2.33,2.33,0,0,1,.73-.49,2.24,2.24,0,0,1,.88-.17,2.41,2.41,0,0,1,.91.17,2.34,2.34,0,0,1,1.26,1.21A2.11,2.11,0,0,1,525.66,67.56Zm-.45,3.53V84h-3.86V71.09Z"/><path class="cls-3" d="M528.32,84V71.09h2.39a1.07,1.07,0,0,1,.6.16.87.87,0,0,1,.34.49l.22.75a9.27,9.27,0,0,1,.77-.65,4.51,4.51,0,0,1,.85-.5,5.05,5.05,0,0,1,1-.32,5.29,5.29,0,0,1,1.15-.12,4.52,4.52,0,0,1,1.87.37,3.89,3.89,0,0,1,1.38,1,4.4,4.4,0,0,1,.85,1.56,6.46,6.46,0,0,1,.29,2V84h-3.86V75.8a2.26,2.26,0,0,0-.44-1.47,1.57,1.57,0,0,0-1.28-.53,2.69,2.69,0,0,0-1.19.27,4.62,4.62,0,0,0-1.07.73V84Z"/><path class="cls-3" d="M551.66,84a1.81,1.81,0,0,1-.83-.15,1.14,1.14,0,0,1-.47-.62l-.27-.71q-.48.41-.93.72a5.94,5.94,0,0,1-.93.53,4.58,4.58,0,0,1-1,.32,6.29,6.29,0,0,1-1.2.11,5.25,5.25,0,0,1-1.61-.23,3.35,3.35,0,0,1-1.23-.68,3,3,0,0,1-.78-1.12,4,4,0,0,1-.27-1.54,3.25,3.25,0,0,1,.35-1.41,3.48,3.48,0,0,1,1.21-1.32,7.65,7.65,0,0,1,2.31-1,14.13,14.13,0,0,1,3.67-.4V76a2.4,2.4,0,0,0-.47-1.65,1.71,1.71,0,0,0-1.32-.51,3.51,3.51,0,0,0-1.12.15,5,5,0,0,0-.78.34l-.67.34a1.84,1.84,0,0,1-.77.15,1.16,1.16,0,0,1-.68-.19,1.43,1.43,0,0,1-.44-.48l-.7-1.21a7.85,7.85,0,0,1,2.59-1.54,9.09,9.09,0,0,1,3.05-.5,5.59,5.59,0,0,1,2.11.38,4.54,4.54,0,0,1,1.59,1.06,4.62,4.62,0,0,1,1,1.61,5.81,5.81,0,0,1,.35,2V84Zm-4.43-2.35a3.06,3.06,0,0,0,1.31-.26,4,4,0,0,0,1.13-.85V78.77a9.92,9.92,0,0,0-1.9.15,4.6,4.6,0,0,0-1.18.38,1.43,1.43,0,0,0-.6.51,1.22,1.22,0,0,0-.17.63,1.1,1.1,0,0,0,.36.94A1.75,1.75,0,0,0,547.23,81.64Z"/><path class="cls-3" d="M560.69,84.2a4.55,4.55,0,0,1-1.62-.27A3.13,3.13,0,0,1,557.16,82a4.6,4.6,0,0,1-.25-1.56V73.76h-1.09a.7.7,0,0,1-.72-.76V71.49l2.05-.4.76-3.15a.77.77,0,0,1,.85-.6h2v3.77h3.14v2.64h-3.14v6.41a1.21,1.21,0,0,0,.22.74.74.74,0,0,0,.63.29,1.23,1.23,0,0,0,.35,0l.25-.1.2-.1a.51.51,0,0,1,.22,0,.45.45,0,0,1,.28.08,1,1,0,0,1,.22.25l1.17,1.83a5.33,5.33,0,0,1-1.68.84A6.67,6.67,0,0,1,560.69,84.2Z"/><path class="cls-3" d="M570.55,67.56a2,2,0,0,1-.19.86,2.28,2.28,0,0,1-.51.71,2.5,2.5,0,0,1-.75.49,2.34,2.34,0,0,1-.91.18,2.17,2.17,0,0,1-.88-.18,2.48,2.48,0,0,1-.73-.49,2.23,2.23,0,0,1-.5-.71,2.1,2.1,0,0,1-.18-.86,2.17,2.17,0,0,1,.18-.88,2.28,2.28,0,0,1,.5-.72,2.33,2.33,0,0,1,.73-.49,2.24,2.24,0,0,1,.88-.17,2.41,2.41,0,0,1,.91.17,2.34,2.34,0,0,1,1.26,1.21A2.11,2.11,0,0,1,570.55,67.56Zm-.45,3.53V84h-3.86V71.09Z"/><path class="cls-3" d="M579,70.9a7.46,7.46,0,0,1,2.67.46,5.88,5.88,0,0,1,2.07,1.32A6,6,0,0,1,585,74.76a7.54,7.54,0,0,1,.48,2.76,7.67,7.67,0,0,1-.48,2.78,6,6,0,0,1-1.34,2.1,5.9,5.9,0,0,1-2.07,1.33,7.36,7.36,0,0,1-2.67.47,7.45,7.45,0,0,1-2.69-.47,6,6,0,0,1-2.09-1.33,5.9,5.9,0,0,1-1.36-2.1,7.65,7.65,0,0,1-.48-2.78,7.52,7.52,0,0,1,.48-2.76,5.85,5.85,0,0,1,1.36-2.08,6,6,0,0,1,2.09-1.32A7.55,7.55,0,0,1,579,70.9Zm0,10.44a2.19,2.19,0,0,0,2-.94,6.79,6.79,0,0,0,0-5.7,2.2,2.2,0,0,0-2-.93,2.25,2.25,0,0,0-2,.93,6.74,6.74,0,0,0,0,5.7A2.25,2.25,0,0,0,579,81.33Z"/><path class="cls-3" d="M587.64,84V71.09H590a1.07,1.07,0,0,1,.6.16.87.87,0,0,1,.34.49l.22.75a9.27,9.27,0,0,1,.77-.65,4.51,4.51,0,0,1,.85-.5,5.05,5.05,0,0,1,1-.32A5.29,5.29,0,0,1,595,70.9a4.52,4.52,0,0,1,1.87.37,3.89,3.89,0,0,1,1.38,1,4.4,4.4,0,0,1,.85,1.56,6.46,6.46,0,0,1,.29,2V84h-3.86V75.8a2.26,2.26,0,0,0-.44-1.47,1.57,1.57,0,0,0-1.28-.53,2.69,2.69,0,0,0-1.19.27,4.62,4.62,0,0,0-1.07.73V84Z"/></g><g class="cls-2"><path class="cls-3" d="M463.49,92.37v3.33h-5.1V110.5h-4.21V95.71h-5.1V92.37Z"/><path class="cls-3" d="M466.85,97.6v8.19a2.25,2.25,0,0,0,.44,1.48,1.57,1.57,0,0,0,1.28.52,2.75,2.75,0,0,0,1.19-.26,4.42,4.42,0,0,0,1.08-.73V97.6h3.86v12.9H472.3a.91.91,0,0,1-.95-.65l-.24-.75a7.45,7.45,0,0,1-.77.65,4.73,4.73,0,0,1-.85.5,5.11,5.11,0,0,1-1,.32,5.19,5.19,0,0,1-1.14.12,4.51,4.51,0,0,1-1.87-.37,3.85,3.85,0,0,1-1.37-1,4.47,4.47,0,0,1-.85-1.56,6.44,6.44,0,0,1-.29-2V97.6Z"/><path class="cls-3" d="M477.67,110.5V97.6H480a1.94,1.94,0,0,1,.48,0,.85.85,0,0,1,.32.16.66.66,0,0,1,.2.28,2.5,2.5,0,0,1,.12.42l.21,1.21A6.32,6.32,0,0,1,482.88,98a3.23,3.23,0,0,1,1.93-.63,2.22,2.22,0,0,1,1.42.42l-.5,2.84a.55.55,0,0,1-.2.37.68.68,0,0,1-.4.11,2.62,2.62,0,0,1-.5-.06,3.88,3.88,0,0,0-.72-.06,2.65,2.65,0,0,0-2.39,1.62v7.91Z"/><path class="cls-3" d="M491.8,91.87v10.44h.57a1.24,1.24,0,0,0,.55-.1,1,1,0,0,0,.37-.36l2.44-3.63a1.32,1.32,0,0,1,.5-.47,1.62,1.62,0,0,1,.74-.15h3.53l-3.33,4.59a3.65,3.65,0,0,1-.52.57,4.24,4.24,0,0,1-.6.45,3.81,3.81,0,0,1,1,1.12l3.63,6.17h-3.48a1.82,1.82,0,0,1-.75-.14,1.12,1.12,0,0,1-.52-.5l-2.44-4.57a1,1,0,0,0-.36-.4,1.31,1.31,0,0,0-.56-.09h-.75v5.71h-3.86V91.87Z"/><path class="cls-3" d="M507.06,97.4a6.64,6.64,0,0,1,2.35.4A5.09,5.09,0,0,1,511.23,99a5.27,5.27,0,0,1,1.19,1.86,6.83,6.83,0,0,1,.43,2.49,5.53,5.53,0,0,1,0,.71,1.15,1.15,0,0,1-.14.44.53.53,0,0,1-.27.22,1.26,1.26,0,0,1-.43.06h-7.44a3.64,3.64,0,0,0,1,2.35,2.92,2.92,0,0,0,2.05.73,3.67,3.67,0,0,0,1.16-.16,5.79,5.79,0,0,0,.86-.36l.7-.36a1.45,1.45,0,0,1,.67-.16.8.8,0,0,1,.7.34l1.12,1.38a5.72,5.72,0,0,1-1.29,1.11,6.72,6.72,0,0,1-1.42.67,7.72,7.72,0,0,1-1.46.34,11,11,0,0,1-1.39.09,7.25,7.25,0,0,1-2.54-.44,5.84,5.84,0,0,1-2.08-1.31,6.18,6.18,0,0,1-1.41-2.16,8.1,8.1,0,0,1-.52-3,6.8,6.8,0,0,1,.44-2.45,6,6,0,0,1,3.27-3.41A6.62,6.62,0,0,1,507.06,97.4Zm.08,2.66a2.32,2.32,0,0,0-1.73.63,3.27,3.27,0,0,0-.82,1.81h4.81a3.4,3.4,0,0,0-.12-.9,2.17,2.17,0,0,0-.39-.78,2,2,0,0,0-.7-.55A2.41,2.41,0,0,0,507.13,100.06Z"/><path class="cls-3" d="M519.84,113.84a1.1,1.1,0,0,1-1.22.75h-2.89l2.49-5.23L513.08,97.6h3.41a1.09,1.09,0,0,1,.7.2,1.07,1.07,0,0,1,.35.47l2.12,5.56a12.32,12.32,0,0,1,.48,1.54q.12-.4.27-.78c.1-.26.19-.52.29-.78l1.92-5.54a.94.94,0,0,1,.39-.48,1.12,1.12,0,0,1,.63-.19h3.11Z"/></g><path class="cls-4" d="M202.57,87.5h.2v-.2h0v-.2h-.4l.2.4ZM213,100.73h0l-.2-.2h-.2l.4.2Zm3.28,9.06h0l.2.2h-.4l.2-.2Zm18.31,4.78h0v.5h0v-.5Zm6.37,7.07Zm-1.19,0Zm6.67.5h0l-.2.2h0l.2-.2Zm-4.68.2Zm3,.5h0l-.2.2h0l.2-.2Zm-.9,0ZM237.2,48.39h0v-.2H237l.2.2h0v0Zm6,74.23h0v-.2h0l-.2.2h0v.2h.2v-.2ZM229.64,54.06h0l.2-.7h-.2v.7ZM207,86.1v.5h0l.2.2h.2v-.2h0l-.2-.2v-.8l-.2-.2h0v.7Zm17.61,29.65Zm70.25,6.57ZM199.49,65.41v-.7h-.9v.4l.2.2.5.2.5.2h.2Zm19.21-11.15h0l-.2-.2v.4h-.2v.3l.2.2h.8v-.2h-.2l-.4-.5Zm.5-1.89h.5l.2-.2V52l-.2-.2H219l-.2-.2h-.2l-.5.2h-.2v-.2h0V52h0v.2l.2.2h.4l.2.2h.2l.3-.2Zm211.36,51.94h0l-.2-.5v-.2h-.5v-.2l-.2-.5h-1.19v-.2l.2-.5V102h0v-1.69l-.2-.2-.2-.2v-.7l.5-.2.2-.2v-.2l-.5-.5-.2-.2-.2-.2h-1v-.2h0v-.2h0l-.7-.2v-1h-.2l-.5-.2h-1.39l-.2-.2v-.2l.2-.2V93.77h0v-.2l.2-.2v-.6l.2-.2h.2v-.4h.2V90.68l.2-.5.5-.2.2-.5v-.4l-.2-.2,1-.2h-.4l-.5.2H425V87.6l.2-.7v-2h-.4v-.8l.2-1.19v-.5l-.7-.2v-1l-.2-.2V78.84h0v-.2h0l.2-.2.2-.2V77.15l.2-.5v-.5l-.5-.2-1.39-.2-.2-.2V74.46l-.2-.2v-.4h0l-.2-.2v-.4l-.2-.5v-.2l.2-.2.2-.2h.8l.7-.2h.2l1,.5h.4l.7-.2.2-.2.2-.2V71h0l.2-.2V69.09l.5-.7V67.3l1.39-1.19h.2l.2.2.2.5.2.2.7.2.2.2,1,.7-.2-.2-.2-.7V67l-.2-.2-.7-1v-.2h-.2l-.2-.2-.7-.2h-.2v-.7l-.2-.2h0v-.4l-.2-.2-.2-.5-.7-.7-1.69-1-.5-.2h-.5l-.7.2h-.6l-.2-.2h-.6l-.7,1h-.2l-1.39-.2-1.19-.7-1.19-.2-.7-.5v-.5l.2-.2.5-.2.2-.2v-.2l-.7-.2-.2-.2.2-.2-.2-.5-.5-.7-.2-.2-.2-.2v-.4l.2-.7h0l-.5-.5-.2-.2v-.2l.5-.5.2-.2h.2v-.5l.2-.2.5-.7v-.5h0l.2-.5V49.58l-.5-.7V47.49l-.2-.2-.5-.5-.5-.5-.5-.2H415l-.2-.2-.2-.5V44.31l.2-.5-.2-.5-.2-.2-.2-.2h-1l-1.19.2-.2-.2-.2-.7-.2-.2h-.6l.7-.2.2-.2.2-.2h-.5l-.5-.2-.7-.7-1-.5-.2-.2-.5-.7h0l-.7-.5h0v-.4h-.2l-.2.2h-.2l-.2-.2-.2-.2v-.2l.2-.2v-1h-.2l-1.69-.2h-.9l-.2.2-.2.2v.7l-.2.2-.2,1-.5.5-.2.2h-.2l-2.09-1h-.9l-.2-.2H397l-.5.2-1-.2-.5.2-.2.2-.5.5-.5.5h-.2l-.5-.5h-1v-.4h0l-.2.2h-.7l-1.39-.5-.2.2-.8.2h-.2v.5l-.2.2-.2.2h.3l-.2.2h-.5l-1.19,1h-.6l-.2.2-.5.5-.5.5-.2.2h-.6l-.5.2h-.2l-.5-.2h-.4l-1,.7-.7,1H379.7v1l-.5.2h-.7L378,45l-2.09,1.39-.5.2-.2.2-.5.2h-.2l-.5.2h-1.09l-.2-.5L372,46h-.2l-.7.2-.2.2h-.4l-.7-.5h-.4l-.2-.2h-.2l-.2.2h-.7l-.5-.2L367,45l-.7-.7-.2-.2-.7-.2h-.2l-.7.5h-.4l-.2.2h-1.09l-.5-.2h-1l-.2.2h0l-1,.2H358.5l-.2.2-.2.5-1,.2h-.2l-.2.2h-.8v.7h0l-.2-.2h-.2l-.5.2h-.2l-.5.5-.2.2h-1.39l-.5-.2-.5.2H351l-.5-.7h-.9l-.5-.2h-.7l-1.39-.5h-.5l-.5.2-.2-.5-.2-.2-.2-.2-.7-.2-.2-.2v-1h-.2l-.2.2H344l-.2-.2h0l-.2.2-.2.2-.2.2H343l-.2.5v.2h-1.69l-.2-.2h0l-.5-.2-.5-.2-.2-.2h-.8l-.2-.2-.5-.2h-2.09l-.5-.2h-.4v-.9l-.2-.5-.5-.2-1.89-1-.7-1h-1.59l-.2.2h0v.2h0l-.5.2v.4l-.7.5-.5.2h-.8l-.2-.5h-.4v-.6h-.2l-.7-.2-.2-.2-.5-.7-.2-.2-.5-.7-.2-.2v-.7h0V36.75l-.2-.5-1-1.19h0v.2l-.7-.7h-.2l-.2.2-.2.2v1h0v-.2l.2-.5v-.4h0l-.5.5h-.4l-1.69-.2-.7.2-.5.2h-1.79l-.5-.2-.7-.2-.2-.2-.2-.2h-.5l-.7-.2-.2-.2-.5-.5-.5-.2-.2-.2-.2-.2v-.2h.2l-.7-.5-.5-.5-.2-.7V29.78l.2-.2h.9l-.2-.2h-.4l-.2.2h-.7l-.5-.7.2-.2h0v-.2h0l-.2-.2v-.2h-.9v.5l-.2.5-.5.5-.5.2-.5.5h-.2l-.7.2h-2.39l-.5-.2-.2-.2H303l-1.19.5-4.08-.5-1.69.2-.2-.2h-.2l-2.59-.2-.7-.2h-1.59l-1-.2h-.5l-1.89,1.19-1.89.7-.5.5-.5.2-1,.2h-.2l-.2.2H282l-.7.2h-.2l-.2-.2h-.5l-.2.2-.2.2h-.6l-1,.5-.2.2-.2.2h-.2v-.2h-.9l-.5.2-.2.5h0l-1,1.39-.2.5-.2.2-1.19.5h-.2l-.5.5-1.39.7-2.59,1.69-1.89.7h-.2l-.2.2h-1.19l-.2.2V41l.2.2h0v1.19l-.2.2-.7.7-.5.2-.5.2h-1.49l-.2.5H257.6l-.2-.2-.5-.5-4.08-1-.5-.2h-.5l-.2-.2h-.2v.5h0V43h-.2l-.2.2h-3.78l-3.28-.5-2.39-.5-2.39-.5H237.8l-.5.2-.5.5-.2.5.2.2v.7l-.2.2-.2.7-.2.2-.2.2-.2.2v.6h.2l.7.5.5.2.2.2.2.2.7.2.2.2h.2l.2.2.2.2.2.2h-.2v.8h.6V49h.2v.8h.4l.2-.2h.2l2.89-.2h.2l.5.2h.2l.2.2h.4l1-.2h.5l.2.5-.2.2h-.2l-.2.2h-1.39l-2.39.5h-.2v-.2l-.2-.2h-.8V51h-.6v-.2h0l-.2.2-.5.2-.5.2-3.58.2h-.2l-.5.5-.5.2-1,.2-.5.2-.2.5.7.2,1.19.7.7.2h.2l.2-.2h.9l.2.2.2.2.2.2h-.8v.9l-.5.5h-1.49l-.2-.2h-.9l-.5-.2h-.4l-.2.2h-.7l-.2.2h0l-.5-.2-.5-.2H230l-.5.2v-.2h-1.69l-2.89.2-1,.5h-1l-.5-.2v-.5l.2-.2,1.19-.5.2-.5-.2-.2-1.19-.5-2.09-.2h0l-.2-.2-.2.2H220l-.2.2h-.4V54l.3.8h0V55h0v.2h0v.4h.2l.7.2h.2l-.2.2-.7.2-.2.5h-1l-.2.2h-.2l-.2-.2h-.4l-.5.2h-.4l-1-.2v-.2l-.7-.5-.5-.5h0l.2-.2-.2-.5-.2-.2-.2-.2h-.5l-.5.2h-1.69l-.5.2-.2.5-.2.2h-.9l-.2-.2H207l-.2.2-1.39,1.69-.2.2h-.2l-.5.7.2.7h-.5l-.2.2h-.5v1.19h-.2v.8l-.5.5h-.2l-.5.2-.2.2-.7-.2h0l-.2.5v1.19h0l-.2.7v.2h.2V65.9h0v.4l.2.5v1.69l-.5.5-.2.7-.2,1v.2l.5.2h.5l.2-.5h.2v-.2h1.49l.5-.2h.2l-.2-.2h.2l4.48-.7.2.2h.2l.2-.2.2-.2h.5l.2.2v.4l-.2.7v.3H209l-.2.2.2.2-.2.2h-.6v.2h0l-1.39,1-.2.2h-.4v.4h-.2v.4l-.2.2h1.29v1.19l.7.5h.2l.5.2.2.2.2.5.2.5v.2l-.2.2h-.2l-.2.2v.2l-.2.2h.2l-.2.2v1l.2.2h.2l.2.2h.4l.5-.2.2-.2.2.2h.2l.2.2h.6l.2-.2.2.2v.2l-.2.5h.2v.6l-.2.2-.2-.2v.2l-.2.2h-.4l.2.5-.2.2h-.2v-.2l-.5.2h0l.2.5v.2h0v.2h-.2v.2h-.2l-.2-.2h-.4l-.5.2-1-.5-.2.2v.4l.2.5h-.2l.2.2h.4v.2h.6V84h.4l.2.2v1.39h.2l.2.2.2.2.2.2h-.2l-.2-.2-.2-.2-1.19-.5.5.3.2.2h.6l.5.7.2.2v.2h0l.2-.2.7-.2h.2l.2.2h.9l-.2.5-.2.2-.2.2-.2-.2H211l-.2.2h-.2l-.7.2h-1.59v-.2h-.2l-.2-.7-.2.2h-.4l-.2.2-.2.2v.9l.2.2V89H207l-.2-.2-.2-.7v-.9h-.2v-.6h.4v-1h0l-.2-.5-.2-.5v-.2l-.2-.2-.5-.5-.2-.2-.2-.2h-.6l-.2.2h-.4v.6l-.5.7h0l.2.5v.3h0l.5.5v.6h.2v-.2h.2l.2.2h.2l.2.2h.2l-.2.5h0l-.2-.2h-.5l.2.2v.4l-.2.2h0l-.2.5H204l-.2-.2h0v.2h-.4v-.8h0v.2l-.2-.2v.4l.2.2h-.2v.2l-.2.2-.7.5v.4h0l.7.2h0l.5.2h.4v-.4h0v1l.2.2h0v-.2l.2.2.2.2.2.2h.2v.6h1.39v0l.2.5h.2v-.6h0l.2-1h1.49l.2.2v.7h.2v.2l.2.2v.6l.2.5h.9l.7.2h.5v.2h.2l.2.2h1.19l.2.5v.2l-.2.2V96h0l-.2.2h0v1.79l-.2.5h-.2l-1,.5h-.3l.5.2,1.19.2.7.7h.2v.9l-.2-.2v.2h0v.8h.2v.9h-.2v1.29h0v.2l.2-.2h.9l.5-.2h.2l.2-.2v-.4h.6l.2.2-.2.2-.2.2v.4l.2.2h.2l.2-.2v-.5h0l.2.2v.6l-.2.2v.4h.2v-.2h.2l.2.2v.2l-.2.2h.4l.2-.2v.1h.6v.2h-.2v.2h.2l-.2.2h-.2l.2-.2h-.2l-.5.2h.2v.7h-.6l-.2.2H216l-.2-.2h-.4v-.1h0v.4h0v-.4h-.2v.6H215l-.5-.2-.2.2h0l-.2.2-.2.2h-.2v2l.2.2h.2v.2h0v-.2h.2l.2-.2v-.4h.9v-.2h0l.2-.2h.2l.2.2h1.29l.2.2v-.5h.2l.2.2.2.2.2-.2.5-.2h.5l.2.2h.6v-.2h.2l1-.2h1.09l.2-.2h.2l1.39.2.2.2v-.4h.9L227,108h-.3l-.7.2v.2h-.2l-.2-.2v.4h.2l-.2.5h0v-.2h0l-.2-.2h-.8v.4l.2.2h-.2l.2.2v.2h.4v.2l-.2.2h0v.2l-.2-.2h-2.09l-2.09,2.39h-1.29l-.5-.2h-.2v.6H216.5l-.2.2v.4h-.4v.2h.6l.2.2h0l1-.2v.2h1l.5.2v-.2l.2-.5v-.2h.2l.2-.2h1.39l.2.2.2.2h0v-.2h0v.2h.2l.2-.2h0v.2h.2l.5-.2.2-.2v.2h0l.2-.2.2-.2h.4v.6l-.2-.2h0l.2-.5h.2v.2l-.2.2h-.2v-.2h-1.39v.2h.8v-.2h.2l.2.2v.4l-.2.2h0l.2-.2.2.2-.2.2-.2.2-.2.2H222l.2.2h.4l.2-.2v.2h.6l.2-.2.2-.5.2-.2.2-.2.2-.2.7-.2h0v-.2h.6v-.2l-.5-.5v-.2l-.2-.2v-.4l.2-.2h.4l.2.2h-.2v.4h.4v-.2h.2l.7.2h.2l.2-.2v-.2l.2-.2-.2-.2h.9v-.4h0v.2h0v.4h1v-.5l.2-.2h.5l.2.2v.2h0v-.2h0l.2.2v.6l.2.5h0l.2-.2h.4v.2h0l.5-.2h.5l.5.2v.5h.6v.2l.2.2h.6v-.2l.2-.2.2-.2V112l-.2-.2v.4h0v.2h0l-.2-.2h0V112h.2v-.4h.2l.2-.2.2-.2.2-.2v.2l.2.2,1,.5.7.5h0v.8h-.2V113h-.2l-.2.2-.2.2-.2-.2v.4h0l.2.2v.4h0l.7-.2.2.2h.2v.7h0l-.2.2h.2l.2.2v.4h2.09v.2h-2v.2h.2l.2.2.7.2.2.2v.2l.7.7h0v.2h.2v.7l.2-.2.7.5h1.19l.2.2h.1v.2h-.2l.2.2.5.2v.2l1.39,1.69h.8l.2.2h.6l.2-.2.2-.2H247l.2-.2h1l1-.5h.9v1.09h0V121l1-.2h.2l1.39.7h.2l.2.2v.9l.2-.2.2-.2.2-.2.2-.2.2-.2.2-.2h0l.2-.2.2-.2.2-.2h-.2v-.2h-.2l-.2-.2v-.2l.2-.2v-.2l.2-.5.2-.5.2-.2.5-.2v-.2l.2-.5v-.2h0v-2.49h0l-.2-.2v-1.39l.2-.2.2-.5.2-.2.7-.5.5.5.2.2h2.29l5,.7.5.2v.5h.5l2.39,1,.2.2.2.2,1,.5h.4l.2.2.2.2.5.2h.6l.2.2v.2h1.09l.7.7h.2l.2.2.2.5h.2l.2.2.2.2h0v.2l.2.5.7.7.2.5v.7h0l.2.2h0l.5.7h.6v.2l.2.2,1,.5h.7l.7.5.5.2,1.19.2h.5l.7-.5v-.2h.2l.7-.5h.2l.7.2h.9l.2-.2v-.2l-1.19-.2h.4l.2.2h1.59l.2-.2h.2l.5.2h.2l.5-.2h.4l.5.2h.2l.2-.2.2-.5.2-.2h.4v.2l.2.5h0v-.7l.5-.5h0l.5-.2h.4l.2-.2.2-.2h.2l.2-.2.2-.5.2-.2h.6l.2.2.2.5v.7h.2v-.6l.2-.2h0l.2-.2.2-.2h.5l.2-.2v-1.49l.5-.2.5-.5.2-.2h0v-.4l1-1.39.5-.2,1.39-1,1.19-1,.5-.2h0l.2-.2h0l.5-.2h.7l.7-.5.5-.2.5.2h0l1,.5.5.5h.2v.2h1l.5.2.2.2,3.08,1.89h.4l.2.2h.2l.2-.2h.2l.2-.2h.5l.5.2h-1.19v-.4h.4l.5.5h.7v-.2h.2v-1.29l.5-.5h-.4l-.2,1h-.2v-.2l.2-.2.2-.2.7-.2h-.8V114h-.2v.2h3.78l-.2.2V114l.2-.2.2-.2h.2l.2-.2.2-.2.5-.2H320l.2-.2.5-.5h.4l.2-.2.7-1,.5-.5.5-.2.5.2.5.2.5.5.7,1,.2.2v1.19h0v1l-.7,1.19v.2h-.4l-1.39,1h-.2v.2l-.5.7h0l-.5.2h-.2v.4h-.3l-.2.5h-.6v.2l-.2.5v.2l.2.2.2.2.2.2.2.2.2.5.2.2.2.2,1,1.39.2,1v.2h-.2l-.5,1-.2.2h.6l.2.2v.6l.2.2h.7l.5.2.7.5h.2l.2-.5v-1.19l.2-.5.5-.2h.4v-.5h.2l.5.2h.2v-2.79h0v-.2l-.2-.2.2-.2.2.2h1l1,.2h.2l1-.2v-.8l-.2-.2-.2-.2h-.7l-.5-.2h0v-.6h-.2l-.2-1v-.4l.5-.5v-1.59l.2-.7.2-.5V114l.2-.2.2-.2.2-.2v-.5h0l2.39.7h1.09l.2.2.5.2v1.09l.2.2.2.2h0v-.2l.2-.2h.8l.7-.2h.2l1.89.5h.5l1.89-1.19.7-.2,2.09-.5,1.89-1h.2l1.39-1,1-.2h1.19l2.39.7.7.2,1.69,1.69.7.5h3.78l1.89.7h.7l6.37-1.19,2.59-1,1.19-.7.5-.2h.5l.5-.2,2.59-1.69.2-.2h.6l.5-.2,1.69-1,.7-.2,2.39-.2,2.89.7.5.2h.2l3.58-.2,6.67-1.69.5-.2,1-1,.7-.7h.2l.2-.2.2.2v.4h.2l.5.2h0v.2h0l.5.2h0v.2l-.2,1,.2.2h0v.7h.5l.7-.2,1-.2h.2l.2-.5,1.69-2.39V105h0v-.2h0l.7-.2h.2v.2h0l1,.2h.5l.5-.2.2-.2.5-.2,1.89-.5h.7l1.69,1h.4l.5.5.5.2.5.5h1l.2.2.2.2h2l.2.2h.2l.2-.2h.7l.5-.5.5-.5.5-.5h1.19l1.19.5.2.2.2.2.2.2v1.29h1.09l-.2.2v.6l.5,1.19v.2h0l.5.2h.2v-.2h0l.2-.2V109l2.09-.7.2-.2.2-.2.2-.5.5-.5.5-.2.5-.2h.2l1.19.2.2.2.2.2v-.6h0v-.2l.2-.2h.2l.2-.2v-.5l-.2-.2ZM199.29,51v1.29h2.79l.7-.2h.2l.2.2h1l.2.2,1-.5h1.39l.2-.5,1-.2v.2l.5.7-.2.5-.2.2-.5.2-.2-.2-.2.2-.2.5-.2.2h-1.39l-.5.2-.5.5-.7.5-.5.5-.7.5-.2.2h-.2l-.7.2h0l-.2.2v.2h0l.5.2.2.2v.5l-.2.5-.5.7v.9l-.2.2-.2.2h0v.6h.2l.5.5h0l.5-.2.5-.2.2-.2.5-.5-.2-.2-.2-.2v-.2l.2-.5h.7l.2-.2.2-.2.2-.5h0l.2-.2.2-.2h.5l.7-.7.2-.2v-.6l.5-.2.2-.2V54.76h.4l.5-.2.2-.2.5-.2h.2l.2-.2.7-.5.5-.2h.7l.5-.5.2-.2h.7l.2-.2h.4l.2-.5h0l1.19-.7.5-1L215.71,49l.2-.5.2-1.39.2-.5.5-.2,2.59-.5h.5l.5.2.2.2.2.2.2.2,1,.2h.2v-.4l.2-.5.2-.2.2-.2h.4l.7-.2h.2l.7-.2.2.2h.7l.2.2h1l1,.2h.5l.2.2.7.7h.5l.2-.2v-.8l-1-.7v-.2h.2l.2.2.2.2v.5h0l.2.2v.5l.5.2,1.39-.2h.2l.2.2h1.29l.2-.2h.2v-.2h.2V46h.2l.2-.2v-1h0v-.4h.2l.2-.2.2-.2.2-.2v-.5l-.2-.2-.2-.2h-.2v.2h0l-1.39-1.19L229,40l-2.59-1.19-1.89-1.19-.7-.7-.2-.2-.2-.2-.2-.2-.2-.2-.2-.2v-.2h0v-.9l-.2-.2-.2-.2-.2-.7-.2-.2-.2-.7-.2-.2V31.47h.8v-.2h0v-.2l-.2-.7h-1.59l-.2-.2h-.4v.6h-.2l-.5-.2.3-.7h-.5l-.7.5v.2h0v.2h-.6l-.2-.5-.2-.2-1-.5-.2-.2-.2-.2-.5-.7-.2-.2-1-.2h-1.09l-.2.5h-.6l-.2-.2-.2-.2h-.4l-.2.2-.2.7-.2.2h-.2v.4l-.2.2h-1l-.2.2h-.4l-.2.2h-.2l-.2-.2h-.2l-.2.2h-.4l-1.19-.2h-.2l-.2.2-.5.5h.2V31h0v.6l-.2.2-.7.7h-1.19l-.5.5-.2.5v.7l.2.2h.4l.2.2.5.2h.4v.4l.7.5.5.2.2.2.2-.2v.4h0v.9l-.2-.2v.9l.2.7V40l-.2.2h-.4l-.2-.2-.2-.2-.7.7h-.2l-.2,1-.2.2h-.9l-.2.2.2.2-.2.5V43l.2.2-.2.5v.2h.2l-.2.5v.4l.2.5v.2l.2.2v.4h-.2v.2l.2.2h.2l-.2.2h-.2l-.2.2-.2.2h-.2v.4h0v0h-.2v.2l-.7.5-.7.7v.9l-.2.2-.5.2h-.5v.2Z"/><path class="cls-3" d="M137.89,118.94c-4.68,1.29-9.75,1.69-14.33,3.28,7.76-6.67,7.36-17,12.54-24.88,1.69-2.19,3-4.58,5-6.67-3.18,6.37-1.79,14.53-5.37,20.7a27.69,27.69,0,0,1-5.57,6.77c.7,0,1.29-.7,2-1.09,5.87-5.87,13.63-7.56,20-12.34a18.24,18.24,0,0,0,6-7.56c-1.39,9.65-11,18.81-20.2,21.79"/><path class="cls-3" d="M159.09,79.34c-2.89,4.08-6.37,8-9.06,12.14.3-3.28.7-7.36-.6-10.55-2.19-6.77-4.18-13.53-4.78-21l.1-2.79c1.69,7.56,9.15,12.74,8.66,21.2.2,2.09-.5,3.78-.9,5.57l.1.1.3-.4c1.09-4.18,1.69-8.56,3.38-12.44,2.49-5.57,5.47-11.24,4.28-17.91,3.68,8.06,2.59,18.71-1.49,26.07"/><path class="cls-3" d="M154.51,36.55c4.88,6.57,6,17.12,2.39,24.68a43.77,43.77,0,0,0-2.79,10.15c-.2-.6-.3-1.39-.5-2.09-1.89-7.36-9-12.64-11.84-19.7a34.91,34.91,0,0,1-2.09-7.16c3.08,5.67,10.65,8.66,12.74,14.93.9,1.59.8,3.58,1.29,5.27a.21.21,0,0,0,.2-.2,76,76,0,0,1,.2-19.6c-.1-3.48-.4-6.87-2.29-9.45,1.29.8,1.89,2.09,2.69,3.18"/><path class="cls-3" d="M151.13,35.35c1.29,5.77-.6,11.44.6,17.22h-.1c-3.18-6.17-9.85-9.06-14.43-14-2.69-3-3.78-6.47-4.48-10.35,2.69,6.37,9.75,7.76,13.83,13,1.39,1.19,1.79,3,2.69,4.38l.1-.1c-2.39-5-3.18-10.65-4.78-15.92A13,13,0,0,0,140,23.51c5.37,1.09,10.05,6.67,11.15,11.84"/><path class="cls-3" d="M136.8,22c4.08,3.58,5.87,8.26,7.07,13.14l.7,1.49a57.88,57.88,0,0,1-14.93-15.82l-4.58-4.58c4,1.69,8.36,2.69,11.74,5.77"/><path class="cls-3" d="M44.45,17c-4.08,3.58-6.87,8.06-9.85,12.24-2.69,3.28-6.17,5.57-9.15,8.36,1.69-3.38,1.69-7.46,4.08-10.65,3.28-5.77,9.45-7.86,14.93-10"/><path class="cls-3" d="M22.36,29.38a13.57,13.57,0,0,1,7.26-4.88c-5.47,3.78-5.07,10.45-6.77,16-.6,2.09-1.49,4-2,6.07l.1.1a18,18,0,0,1,4.48-6.57c3.88-3.58,9.55-5.77,11.44-11-.1,7.36-6.17,13.14-12,17.22a24.65,24.65,0,0,0-6.07,7.26c-.1-1.89.3-3.68.1-5.67-.6-6.47-1.09-13.73,3.48-18.51"/><path class="cls-3" d="M11.32,51.27c-.2-6.47,2.49-11.84,6.27-16.62.1-.1.2-.2.3-.1-4.18,6.37-.7,14.33-.9,21.59l-.6,7.36c.1.1.1.3.3.2a19.87,19.87,0,0,0,.5-2.59c1-6,6.17-10.15,10.65-14.33a12,12,0,0,0,2.29-3.38,33.83,33.83,0,0,1-2.49,8.76c-3.38,6.77-10,12.44-11.15,20.3-.6-7.56-5.67-13.23-5.17-21.2"/><path class="cls-3" d="M8.13,60.53a31.38,31.38,0,0,1,1.69-6c-1.69,8.56,4.08,14.73,6,22.19.8,2.79,1,5.77,2.09,8.36.1.1.2-.1.3-.1-2.79-8,1.19-15.22,5.37-21.39a21.45,21.45,0,0,0,2.09-5.47c.4,3.58-.5,7.66-1,11.44-1,4.68-2.49,9.25-3.78,13.83-.9,2.89-.6,6.07-.2,9.06l-.4-.3c-3-5.47-9-9.85-10.65-15.92C8.13,71.38,7.14,65.8,8.13,60.53"/><path class="cls-3" d="M7.83,77.25c.7,9.06,10.45,13.93,15,21.39,1.09,1.49,2,3.28,3.48,4.58-.2-1-1.09-1.79-1.49-2.79a19.58,19.58,0,0,1-1.79-10.75c.4-4.68,2.39-9,1.69-13.83,4,8.66,2.79,19.3,5,28.66.6,2,1.79,3.88,2.49,5.77-8.16-5.57-19.3-10.85-23-21.1C7.73,85.7,7.53,81.33,7.83,77.25"/><path class="cls-3" d="M12.81,98.14c4.58,10.35,16,11.15,23.68,17.51A22.45,22.45,0,0,0,41,118.74l.1-.1A26.54,26.54,0,0,1,36,113.17c-4.48-6.27-2.89-15-6.27-21.69a48.06,48.06,0,0,1,7.66,11.64c2.79,6.77,3.78,14.43,10.15,19.5-6.87-2.29-14.93-1.59-21-5.87C19.87,112.67,14,105.81,12.81,98.14"/><path class="cls-3" d="M24.55,117.45c7.26,8.36,19.3,5.57,29.06,7.76a14.32,14.32,0,0,0,4.08.5c-1.19-.7-2.79-.7-4.08-1.29-7.66-2.69-8.76-10.95-12.94-16.52,5.27,3.48,9.75,8.26,14.63,12.84,3.48,3.08,7.76,4.48,12.24,5.37-1.09.4-2.49.3-3.58.6-8,2-16.92,5.17-25.37,2.29-5.57-1.69-11.34-6.07-14-11.54"/><path class="cls-3" d="M123.86,136.85c-8.26,3.08-16.82-.1-23.29-5-2.59-1.69-4.88-4.08-8.26-3.78a13.37,13.37,0,0,0-3.48.3,65.09,65.09,0,0,1,17.41,12,29.72,29.72,0,0,1-3.18,2.89c-5.17-5.47-10.85-10.85-17.12-13.93a13.72,13.72,0,0,0-3.58,1.49,53.15,53.15,0,0,0-14.13,12.64L65,140.83a60.06,60.06,0,0,1,17.51-12.44c-6.27-2-10.35,3.28-15.13,6-5.57,3.88-13.53,5.67-20.2,3a22.89,22.89,0,0,1-9.75-6.67c5.27,3.58,13.14,4,19.11,1.69,8.06-3.48,16.42-8,26.07-5.77,1.49,0,3,1.49,4.38.3a31.07,31.07,0,0,1,21.59,2.69l6.37,2.59c6,2.19,13.63,1.59,18.71-2a22.86,22.86,0,0,1-9.75,6.67"/><path class="cls-3" d="M132.72,128.29c-9.25,3.48-18.61-.8-27.46-2.19l-1.69-.2v-.1c4.28-1,8.36-2.19,11.74-5.27,5-4.78,9.35-9.75,14.93-13.43-4.08,5.27-4.48,12.74-11.34,16.12-1.69,1.09-3.78,1.29-5.57,2.09,2.49,0,4.78-.8,7.16-1.09,9.06-1.39,19.5,0,25.77-7.66-2.19,5.37-8.16,9.85-13.53,11.74"/><path class="cls-3" d="M149.53,102.32a130,130,0,0,0-10.85,7.36v-.3c5.37-9,2.79-21.29,6.07-31L146,75.06c-.7,6.17,2,11.34,1.79,17.51a19.54,19.54,0,0,1-3.38,10h.3c2.69-3.48,4.68-7.16,7.76-10.45,4.78-4.58,9.65-9.35,10.25-15.72,1.69,10.55-4.28,19.9-13.14,26"/><path class="cls-3" d="M134.91,43A55.25,55.25,0,0,0,85.35,11.67a58.08,58.08,0,0,0-25,6C46.84,24.11,35.79,38.14,32,52.07,25.94,75.46,34.2,99.24,54.3,113c14.43,10.35,37.51,12.34,53.73,4.38,14.43-6.07,26.77-20.9,30.55-35.62A55.08,55.08,0,0,0,134.91,43m2.59,19.4c.1.9-.1,2.09.4,2.79l-8,.1a1.44,1.44,0,0,1-.7.2l.2-.3a44.66,44.66,0,0,0-4.18-17.12c-.1-2.39-2.39-4-3.38-6-1.79-1.19-2.29-3.38-4.28-4.48-.4-.4-.6-1.09-1.09-1.19l.9-.2a73.76,73.76,0,0,0,5.47-5.87c8.36,9.35,13.53,19.8,14.63,32M115.1,92.17c-.7-.7-.7-2-1.89-1.89-.4-.1-.6.3-.6.7,0,.2.1.4-.1.6L110,89.39c1.19-.6,2.09-2.19,3-3.38a34.27,34.27,0,0,0,4.78-10.45,1.22,1.22,0,0,0,1.29.1,1.06,1.06,0,0,0,.2-1.29l-.9-1c.1-1.69.6-3.28.4-5l.6.2c2.59,0,5.17.1,7.66-.1l-.4.4c-.6,10-4.08,18.91-11,26.17.3-1-.7-1.79-.5-2.89m-6.47,8c-1.39-1.29.9-2.39,1.29-3.68-.2-1.29-1.69-2-2.79-2.39-.5-.3-.4-1-.4-1.39a3.75,3.75,0,0,0,1.19-1.59l.2.5,3.38,3.48c0,.8.1,1.49.9,1.79.4.2.8-.2,1.09-.1h-.2a46.06,46.06,0,0,1-4.88,4.08l-.4.5c-.1-.3,1.09-.6.6-1.19M93.31,57.44a1.73,1.73,0,0,1-1.39.3c-.5-.5-1.09-1.19-1.89-1.19-.5.1-.9.8-1.49.4,1-1.09,2.79-1.29,3.48-2.79a5.56,5.56,0,0,0,.3-2.19c-.3-.3-.7-.6-1-.3-.6.9-1.79,1.09-2.39,2.09l-2-.7c-.3-1.79.1-4.08-.4-5.67,1.09.4,2.19.4,3.28.7a26.67,26.67,0,0,1,7.86,3.58A7,7,0,0,0,96,53c0,.5.5.4.7.7l.5-.2c-.8,2.09-3.58,1.79-3.88,4M95.6,80.23c-.1,1-1.49,1-2.09,1.69-.4-.1-.1-.5,0-.7a2.38,2.38,0,0,1,2.09-1M111.12,54c.9.2,1.49,1.29,2.39,1.49A14.94,14.94,0,0,1,115,59.63c-.7.8-.8,2.69-2.39,2.39-.4-.9.7-1.39.5-2.19.3-.2.7-.3.8-.7-.1-.8-1.09-.7-1.29-1.49-.3-.5-.9-.4-1.29-.6-1.09-.5-2,2.09-2.29.1.3-.3.5-.7.3-1-.9-.5-1-1.79-2-2.29-1.29,0-2.59-.6-3.88-.3-.9-.2-1.89-.8-2.49.1-.1.7-.4,1.29-.5,1.89a1.77,1.77,0,0,1-.7-.8c2.39-2.69,5.17-5.47,7.76-8.06l.1-.3a33,33,0,0,1,3.68,4.88c.1.9-2,2-.2,2.69m4.78,14.53c-.5,1.49-.4,3.18-.8,4.68-.1.3-.1.6-.2.8-.5-.9-.9-2.19-1.89-2.69s-.3-1.69-1.19-2.29l-.9-.9a12,12,0,0,0,5,.4M104.46,45.11C103,46.8,101.17,48.19,99.88,50l-.2-.6c-3.58-3-7.76-4.38-12.34-5.07l-.7.1.1-7.46-.3-.6a51.86,51.86,0,0,1,8.86,1.89,32.57,32.57,0,0,1,9.85,5.67l.7.3ZM97,85.9a26.54,26.54,0,0,1,6.87,1.59,1.83,1.83,0,0,0,1.49-.5c-.1-.9,1-1.29.8-2.19.5-.8.1-1.89.8-2.49a3.93,3.93,0,0,0-.7-2.79c-.6-.4-1.19.1-1.69.2-.7.5-.4,2-1.59,1.69a1.09,1.09,0,0,1-1.19.3c-.1-.1-.3-.2-.2-.3.8-.4,2.29-.1,2.39-1.49.6-.5,1.59-.3,2.09-.9a7,7,0,0,1,1.19-1.79,1.41,1.41,0,0,0,.1-.9c.2.4.2.9.7,1.09s.9-.3,1.19-.7c0-.2.1-.6.4-.3.7.5,1.69.1,2.49.1a7.76,7.76,0,0,1,2.19-.4,25.33,25.33,0,0,1-4,8.46,26.37,26.37,0,0,1-2.09,2.59,4.54,4.54,0,0,0-.8-2.09l-.3.1c-.4.9-1.29,1.59-1.19,2.69-.7,1-2.29.2-3.28.7-1.19.4-1.79-.8-2.79-1a31.64,31.64,0,0,1-3.28-1c0-.5.1-.7.4-.7M91.82,15A50.93,50.93,0,0,1,121,28.79l-.9.4c-1.49,1.59-3.28,3-4.18,4.78-.1-.5-.9-.9-1.09-1.39a5.65,5.65,0,0,0-2.89-3.68c-1.09-.2-1.29-1.79-2.69-1.29-1.09-.9-2.49-.2-3.58.3V28a41.4,41.4,0,0,0-17.31-5.27c-.3,0-.5.2-.8.2.3-.2.2-.9.1-1.29s-.5-.6-.9-.4a1.49,1.49,0,0,0-.3.7,31.82,31.82,0,0,0-.1-7.56c1.79.5,3.68.3,5.47.6M89.73,26a46.65,46.65,0,0,1,13.33,3.78c.6,1,1.89,1.39,2,2.69-.6,1.69,2.19,1.69.9,3.38-.1.5.4.9.6,1.29s-.1,1.19.5,1.49c1,.2,1.39-1.09,2.39-.7A4.49,4.49,0,0,1,111,41.82a2.56,2.56,0,0,0,1.69,1.79c1.59-.5.9,1.29,2,1.79,1.29.2,1.89,1.79,3.28,1.69,1.19.9,1.89,2.29,3,3.38a.6.6,0,0,0,.3.6c.7.2,1.09-.3,1.69-.3A40,40,0,0,1,126.55,65l.3.5c-2.69,0-5.37,0-8.06.2-.1-1.59,0-3.18-.9-4.48a6.6,6.6,0,0,0,.5-2.79c-.2-.4-.5-.1-.7,0-.9.9-1,2-1.49,3a4.15,4.15,0,0,0-.4,3.88l.3.3L113,65.5c.7-.5-.6-1.39.1-2.09l1.39-.3c.4-1,1.49-1.79,1.49-3a2.48,2.48,0,0,0,.7-2.69c-.7-1.49,1.09-3.08-.2-4.48a.82.82,0,0,0-.7-1c-.4-.1-.9,0-.9-.6.3-.4.9-.8.7-1.39-.3-.4-.8-.1-1.29-.1-.1-.7,1.09-1.39,0-2-.7-.1-1.19.8-1.89.5-.3-.3-.6-.7-.3-1.09l-1.69-2c-.2-.2-.6.1-.7-.3.1-1.59-1.89-2.49-2-4.18-.6-.5-.1-1.59-.9-2a1.64,1.64,0,0,0-1.49-.5A16,16,0,0,0,103,35.55a.56.56,0,0,0-.6.2c.1.8,1,1.19,1,2.09a.37.37,0,0,0-.3.1c.1.8.8,1.39,1.29,2a32.49,32.49,0,0,0-14.83-6c-1.09,0-2.09-.5-3.18-.1a65,65,0,0,0,.1-7.66l-.1-.7c1.09.6,2.19.3,3.38.5M85.05,57.64l.5.2c-.6,0-1.19-.3-1.69.1-.3.2-.1.7,0,1,1,.4,1.19,2,2.49,1.39.6.1,1.19.2,1.39.9.8.3.9,1.69,2,1.39a2,2,0,0,0,.4,1.89c-.2.5-.8.7-.7,1.29-.1.2-.3.4-.1.7,1,.1,1,1.29,1.39,1.89a2.06,2.06,0,0,0,.7,2.09,8.9,8.9,0,0,1-.9,2.59c-1.09.5-2.79-.8-3.18,1.09-.6.7-.1,2.09-1.29,2.19A8.13,8.13,0,0,1,80,74.66c1.09-.6,3.08.2,3.48-1.49a1.12,1.12,0,0,0,.3-1.09,6.34,6.34,0,0,0,1-1.79c-.4-.4-.2-.6-.1-1.09-1.09-1.19-2.69-.5-4.08-.5-.9.5,0,1.39-.6,2-1.09.1-1.09,1.19-1.89,1.89a1.3,1.3,0,0,1-.7-1.19h0c-.1.2.1.4.3.5,1,.2.7-1,1-1.59s1.69-1.59.5-2c-.1-.3.2-.6-.2-.8-.4.2-1,.2-1.09.7a1.09,1.09,0,0,1-.4,1.29h-.2c.1-.3-.2-.5-.4-.7-.6,0-1.19.5-1.79.3a13.44,13.44,0,0,1-2.79.4c-.1-.5.7-.4.9-.9-.1-.8.4-1.29.8-1.89.2-.2.6-.1.9-.1a.75.75,0,0,0,.8.3l.3-.5c.8.5.4,2.89,2,1.89.2-1,0-2.19.5-3.18-.4-.9.6-1.19.9-1.79.8.1.8-.9,1.09-1.29,1.29-.4,2.69-.7,3.48-2.09-.3-.7-.1-1.69-.7-2.19.4-.3,1.39-.6,1.79-.1m-1.19,51-.8-.5c-10.25-.5-19-4.68-26.57-11.44,1.19-.1,1.69,1.49,3.08,1.09,1.49-.2,2.69-1.39,4.18-1.09a2.47,2.47,0,0,0,2.19-.7c.3-.8-.6-1.19-.8-1.89a32.25,32.25,0,0,0,17.71,6.67l.7-.3v7.26ZM55,69l-.4-.7a3.14,3.14,0,0,0,2.69.2c-1.39.4-.9,2.09-1.39,3.08-.1.5.7.6.6,1.09-.7.3-.7,1.09-1,1.59.3-1.69-.4-3.38-.5-5.27m-8.36,9.55c-.7.1-.5.9-.9,1.29.1-1.89-.8-3.78-1-5.77L44.15,69l-.3-.4c2.39.4,5.07.1,7.66.2l.6-.3c-.2,1.19-.3,3,.6,4.08-.3-.3-.7-1.29-1.49-1.29-1.39.1-1.49,1.89-2.89,2-1.19,1-1.29,2.29-1.59,3.58.5.6-.4,1.09-.1,1.69M52.31,65.8l-.8-.3L44,65.6c.7-8.46,3-16.12,7.86-22.79l3-3.78v-.5a52.68,52.68,0,0,0,5.77,5.77,33.48,33.48,0,0,0-8.76,20.6c.2.4.2.7.5.9m31.15-32c-1.39-.3-2.89.2-4.38.3a33.16,33.16,0,0,0-16.52,8.36l-.1-.5C60.67,40.23,59,38,56.89,36.75c1.79-1,3.28-2.59,5.07-3.78A42.59,42.59,0,0,1,83.46,25.8a53.14,53.14,0,0,0,0,8M71.12,75.26a.44.44,0,0,0,.7.3c.3-.4-.7-1.09.1-1.39.4.5.2,1.29.5,1.89a2,2,0,0,1,.3,1.09,19.26,19.26,0,0,0-2.29,2.69c-.5-1.19-1.59-2.19-2.09-3.48-.8-1.39-1.19-3.08-2-4.48.7.8,2.39-.1,2.39,1.49a.6.6,0,0,0,.4.1c.2-.2.2-.3.5-.1.1.3.8.4.3.7a1.62,1.62,0,0,0,1.19,1.19m8.16,21.39,1.29.6c-4.78-1.19-10-2.79-14-6.27-.7-.4-1.19-1.29-2-1.39A41.43,41.43,0,0,0,70,84c.7,1.29,2.29,2,3.48,2.89,2.09,1,4.28,2.69,6.67,2.19a5.68,5.68,0,0,0-2.09,1.29c-.3.7-.2,1.79-1.19,2.19,0,1.69,1.49,3,2.39,4.08M61.77,87l-.3-1.69c-1.59-1.39-1.09-3.78-1.29-5.57-1.09-.9-.2-2.29-1-3.28,0-1.59-2.49-2.19-1.69-3.88a1.35,1.35,0,0,1-.3-1.59c.5-.6,1.59.1,1.89-.8l.2-1.49c.6-.3,1.39.4,1.69-.4.6-1.39-2-3.08.2-3.78.8-.1,1.79-.3,2.09.7a7.33,7.33,0,0,1,.1,3.28c.7.3.1.9.1,1.39-.4.2-.9.6-1.39.5-.2-.4-.6-1-1.09-.9-.4.6.2,1.19.1,1.79-.1.4,0,.8-.3,1.09a1.44,1.44,0,0,0-.7-.2c-.5.2-.2.8-.1,1.09.5.3.8.8,1.39.8l.3-.3a10.8,10.8,0,0,1,.4-2.49l.8.4a27,27,0,0,0,4.28,9.45l1,1a79.83,79.83,0,0,0-7.07,7.16v.1c0-.1-.1-.5-.4-.4-.3-1.19,1.39-.9,1.09-2m3.88-32.54a5.72,5.72,0,0,0-1.89,1.89c-.7.4-1.49.4-2.09,1.09,0,.3.4.7,0,.9-.6.6-2-.2-2.29,1-.1,1-1.29,1.59-1.19,2.69-.7.4-.5,1.29-.5,2,.4.4-.2,1.19.5,1.59a8.18,8.18,0,0,0-3.48.1c.5-1.19.4-2.79.7-4.08A32.5,32.5,0,0,1,62.76,46.4a65.05,65.05,0,0,0,6.07,5.67c-1.59.1-1.59,2.39-3.18,2.39M82.56,84.11c-.4.6-.1,1.59-.3,2.29a20.44,20.44,0,0,1-9.85-4.58c1.69-1.79,3.88-3.58,5.07-5.47.2.9,1.19,1.29,1.89,1.69,1.49.7,3.28,1.69,4.88,1-.1.1-.2.3-.4.3.5.5-.4,1,.2,1.39.1.4-.4.3-.4.6.3.5-.1,1.39.7,1.49a.44.44,0,0,1-.3.7c-.5,0-1.19,0-1.49.6m-8.86-8.26a3.4,3.4,0,0,0,1.09-1.79l.9.5c-.8,0-1.19.9-2,1.29Zm7.66-22.39c-.2-.4.3-.8-.1-1-1.29.6-.8,2-1.69,2.89-.1.7-1.09.4-1.49.7a1.08,1.08,0,0,0-1.49-.2c-.7,0-.8-1.39-1.49-.7-.2.2-.1.7-.6.5-.1-.2-.3-.2-.4-.3,0-.4.7-.4.4-.9-.5-.9-1.59-.7-2.19-1.39h-.6c3.28-3.48,7.26-5,11.74-5.57a17,17,0,0,0,.4,6c-.7-.7-1.59.3-2.49,0m2.19-9c-1.39-.3-2.79.3-4.18.5A25,25,0,0,0,71,49.38c-.1.2-.3.4-.4.6-1.89-1.69-3.78-4-5.87-5.47a31.93,31.93,0,0,1,18.31-7.76l.5-.3a36.38,36.38,0,0,0,0,8.06M53.81,25.1A52.92,52.92,0,0,1,83.36,14.66l-.2.8.1,6.57.3.7A42.77,42.77,0,0,0,55.4,34.46l-.1.4A48.25,48.25,0,0,0,49.23,29H49c1.59-1,3.08-2.79,4.78-3.88M33.31,60.73c1.39-11.34,6.27-21.29,14-30.05l.2.7c1.89,1.79,3.78,3.78,5.57,5.47-1.59,1.09-2.49,2.79-3.68,4.18a44.94,44.94,0,0,0-8.26,23.58l.2,1.09a60,60,0,0,0-8.46,0c.3-1.69.1-3.38.4-5m6.37,32.14a56.64,56.64,0,0,1-6.77-24.18l7.66.1.7-.3a6.59,6.59,0,0,0-.1,1.49l-.1-.1c-.2.2.2.2.1.4a45.77,45.77,0,0,0,1.29,8.36l.4.6a8.81,8.81,0,0,1-1.19-1.69,4,4,0,0,0-1.79.7c.3.8-.5.5-.8.8a1,1,0,0,0-.6-.5c-.6,0-1.19.1-1.39.7.1.4-.4.6-.5.9-.2,1.19-.6,2.89.3,3.88A3.34,3.34,0,0,0,38,86.3c.3,0,.4-.2.6-.3.7.6,1.09,1.89,2.19,1.69.3-.2.2-.5.3-.7.6.6.8,1.79,1.89,1.69.3.3.4.8.9.8,1.19-.3.7,1.29,1.59,1.79.7.4,1,1.39,2,.9l.3-.4c.3.2.1.8.3,1.09a4.07,4.07,0,0,0,2.29,1.79,16.53,16.53,0,0,0,2.59,2.69l-.4.1L47,103.12c-2.59-3.38-5.37-6.67-7.36-10.25m38.71,26.07c-11-1.49-20.7-6.27-29.36-13.73l5.67-5.67.1-.3c7.86,7.56,17.31,11.34,28.06,12.14l.9-.2-.3.4V119l.4.7c-1.69-.7-3.68-.5-5.47-.8m6.67-31.15a2.84,2.84,0,0,1-1.59-.2c-.3,0-.2-.3-.3-.5.8,0,1.19-.9,2-.8.5-.5.6-1.19,1.29-1.39-.2-.7.7-.2.9-.7.3-.2.6-.5.9-.3.6.8,1.69.5,2.19,1.39.3.1.4-.2.3-.4v-.3c.9-.1,1.29,1.19,2.29.3a.61.61,0,0,0,0-.8c-.1-.1-.2-.1-.3-.2.6-.3,1,1,1.79.5.6-.5,1.09-1.19,1.89-1.19l.2.3c.1,1.69-1.29,2.69-2.49,3.38-.8.3-2.29.2-2.19,1.49-.9.8-1.79-.5-2.89-.1-.5-.3,0-1-.7-1.19-1.09.4-2.49-.7-3.28.7m2.09,13.93c1,.4,2.69-.4,3.28.7-.3.6-.8,1.19-.6,2,.4,1,1,2.39,2.29,2.49a2.12,2.12,0,0,0,1.19.7c-2.19.4-4.58.2-6.57.9a51.18,51.18,0,0,0,0-6.77l-.4-.6c.3,0,.5.4.8.6m.1,17.61-.5.3a62.84,62.84,0,0,0,0-8.66c1.39.5,2.79-.1,4.28-.1l4.18-.7c2.09.4,3.58,3.78,5.87,1.69.8-1,2.19-.9,2.69-2.19,1.39-.5,1.69-1.89,2.69-2.79.9-2.59,3.78-3,5.57-4.78,1.29-1.19,3-2.09,3.78-3.68l.1.7,5.77,5.57c-9.75,9-21.2,14-34.43,14.63m50.45-50.45A52.44,52.44,0,0,1,124,102.42l-.2.4a50.1,50.1,0,0,0-6.17-6,19,19,0,0,0,3.28-3.58,44.25,44.25,0,0,0,8.76-24.38l-.3-.7.5.3,7.86-.1.4-.2Z"/><path class="cls-3" d="M109.73,25.7a1.07,1.07,0,0,0,.2.8c1.19.4,1.29,2.09,2.79,1.69.4-.5-.3-1-.1-1.69-.2-.6-.7-.8-1.19-1-.7.7-1.19-.4-1.69.2"/><path class="cls-3" d="M87.74,21c1.49,1.89,4,.8,5.77.5,1.29.6,2.59-.1,3.58-.9v-.2c-.9-1.29-2.69-1.49-4.28-1.69l-4,1.69c-.3-.1-1-.3-1.19.1a.44.44,0,0,0,.1.5"/><line class="cls-5" x1="180.98" y1="5.95" x2="180.98" y2="149.24"/></svg>