<?xml version="1.0" encoding="utf-8"?>
<!-- Generator: Adobe Illustrator 20.1.0, SVG Export Plug-In . SVG Version: 6.00 Build 0)  -->
<svg version="1.1" id="Layer_1" xmlns="http://www.w3.org/2000/svg" xmlns:xlink="http://www.w3.org/1999/xlink" x="0px" y="0px"
	 viewBox="0 0 596 158" style="enable-background:new 0 0 596 158;" xml:space="preserve">
<style type="text/css">
	.st0{fill:#F7F7F7;}
	.st1{fill:#0A72BA;}
	.st2{font-family:'MyriadPro-Regular';}
	.st3{font-size:25px;}
	.st4{opacity:0.9;fill:#0A72BA;}
	.st5{opacity:0.7;fill:none;stroke:#0A72BA;stroke-miterlimit:10;}
</style>
<rect class="st0" width="596" height="157.7"/>
<text transform="matrix(1 0 0 1 450.4919 65.124)" class="st1 st2 st3">Inter-Agency</text>
<text transform="matrix(1 0 0 1 450.4919 88.124)" class="st1 st2 st3">Coordination</text>
<text transform="matrix(1 0 0 1 450.4919 111.124)" class="st1 st2 st3">Turkey</text>
<path class="st4" d="M200.8,90L200.8,90L200.8,90L200.8,90h0.2l0,0v-0.2l0,0v-0.2h-0.2l0,0h-0.2L200.8,90L200.8,90z M211.3,103.3
	L211.3,103.3l-0.2-0.2l0,0l0,0h-0.2L211.3,103.3L211.3,103.3L211.3,103.3L211.3,103.3L211.3,103.3L211.3,103.3L211.3,103.3
	L211.3,103.3z M214.6,112.4L214.6,112.4l0.2,0.2l0,0l0,0l0,0l0,0l0,0l0,0l0,0l0,0h-0.2l0,0h-0.2L214.6,112.4L214.6,112.4
	L214.6,112.4L214.6,112.4L214.6,112.4L214.6,112.4z M233,117.2L233,117.2L233,117.2L233,117.2v0.5l0,0V117.2L233,117.2L233,117.2
	L233,117.2L233,117.2L233,117.2z M239.4,124.3L239.4,124.3L239.4,124.3L239.4,124.3L239.4,124.3z M238.2,124.3L238.2,124.3
	L238.2,124.3L238.2,124.3L238.2,124.3L238.2,124.3z M244.9,124.8L244.9,124.8l-0.2,0.2l0,0l0,0l0,0l0,0L244.9,124.8L244.9,124.8
	L244.9,124.8L244.9,124.8L244.9,124.8L244.9,124.8h0.2l0,0l0,0l0,0H244.9L244.9,124.8z M240.2,125L240.2,125L240.2,125L240.2,125
	L240.2,125L240.2,125L240.2,125L240.2,125L240.2,125z M243.2,125.5L243.2,125.5l-0.2,0.2l0,0L243.2,125.5L243.2,125.5L243.2,125.5
	L243.2,125.5L243.2,125.5z M242.3,125.5L242.3,125.5L242.3,125.5L242.3,125.5z M235.6,50.7L235.6,50.7L235.6,50.7v-0.2h-0.2
	L235.6,50.7L235.6,50.7L235.6,50.7L235.6,50.7L235.6,50.7L235.6,50.7v0.2V50.7L235.6,50.7z M241.6,125.3L241.6,125.3L241.6,125.3
	v-0.2l0,0l0,0l-0.2,0.2l0,0v0.2l0,0l0,0l0,0h0.2l0,0l0,0l0,0V125.3L241.6,125.3L241.6,125.3L241.6,125.3z M228,56.4L228,56.4
	l0.2-0.7l0,0l0,0l0,0l0,0H228v0.2V56.4L228,56.4z M205.3,88.6v0.5l0,0l0.2,0.2l0,0l0,0h0.2v-0.2l0,0l-0.2-0.2v-0.5v-0.3l-0.2-0.2
	l0,0l0,0v0.2V88.6L205.3,88.6z M223,118.4L223,118.4L223,118.4L223,118.4L223,118.4z M293.6,125L293.6,125L293.6,125L293.6,125z
	 M197.7,67.8v-0.5v-0.2h-0.2l0,0l0,0l0,0l0,0H197h-0.2v0.2v0.2l0.2,0.2l0.5,0.2l0.5,0.2h0.2L197.7,67.8z M217,56.6L217,56.6
	l-0.2-0.2v0.2v0.2h-0.2v0.3l0.2,0.2h0.2h0.2h0.2h0.2v-0.2l0,0l0,0h-0.2L217,56.6L217,56.6z M217.5,54.7h0.5l0.2-0.2v-0.2l-0.2-0.2
	h-0.5h-0.2l-0.2-0.2h-0.2l-0.5,0.2h-0.2v-0.2l0,0l0,0l0,0v0.2v0.2l0,0v0.2l0.2,0.2h0.2h0.2l0.2,0.2h0.2L217.5,54.7L217.5,54.7z
	 M429.9,106.9L429.9,106.9l-0.2-0.5v-0.2h-0.5V106l-0.2-0.5h-0.5H428h-0.2v-0.2l0.2-0.5v-0.2l0,0v-0.2v-0.5v-0.5v-0.3v-0.2l-0.2-0.2
	l-0.2-0.2V102v-0.2l0.5-0.2l0.2-0.2v-0.2l-0.5-0.5l-0.2-0.2l-0.2-0.2H427h-0.2h-0.2h-0.2v-0.2l0,0v-0.2l0,0l0,0l0,0l0,0l0,0
	l-0.7-0.2v-0.6v-0.2v-0.2h-0.2l-0.5-0.2h-0.2h-0.7h-0.5l-0.2-0.2v-0.2l0.2-0.2v-0.2v-0.6v-0.2v-0.2v-0.2v-0.2l0,0v-0.2l0.2-0.2v-0.2
	v-0.2v-0.2l0.2-0.2h0.2l0,0v-0.2v-0.2l0,0h0.2v-0.2v-0.2v-0.2v-0.2v-0.7l0.2-0.5l0.5-0.2l0.2-0.5v-0.2v-0.2l-0.2-0.2l1-0.2h-0.2
	h-0.2l-0.5,0.2h-0.7h-0.2l0,0v-0.2V91v-0.2v-0.5v-0.2l0.2-0.7v-0.2v-0.7v-0.7v-0.2v-0.2l0,0l0,0h-0.2h-0.2l0,0l0,0l0,0v-0.2V87v-0.2
	v-0.2l0.2-1.2v-0.5l-0.7-0.2v-1l-0.2-0.2v-1.4v-0.2v-0.2v-0.2v-0.2l0,0l0,0l0,0v-0.2l0,0l0,0l0,0l0.2-0.2l0.2-0.2v-0.2v-0.7v-0.2
	l0.2-0.5v-0.5l-0.5-0.2l-1.4-0.2l-0.2-0.2v-0.2v-0.7v-0.2l-0.2-0.2v-0.2v-0.2l0,0l0,0l-0.2-0.2v-0.2v-0.2l-0.2-0.5V75l0.2-0.2
	l0.2-0.2h0.2h0.2h0.2h0.2l0.7-0.2h0.2l1,0.5h0.2h0.2l0.7-0.2l0.2-0.2l0.2-0.2v-0.2v-0.2v-0.5l0,0l0.2-0.2V73v-0.9v-0.2v-0.2v-0.2
	l0.5-0.7v-0.2v-0.2v-0.5v-0.2l1.4-1.2h0.2l0.2,0.2l0.2,0.5l0.2,0.2l0.7,0.2l0.2,0.2l1,0.7l-0.2-0.2l-0.2-0.7v-0.2l-0.2-0.2l-0.7-1
	V68l0,0l0,0h-0.2l0,0l-0.2-0.2l-0.7-0.2h-0.2l0,0v-0.5v-0.2l-0.2-0.2l0,0v-0.2v-0.2l-0.2-0.2l-0.2-0.5l-0.7-0.7l-1.7-1l-0.5-0.2
	h-0.5l-0.7,0.2h-0.2H423h-0.2l0,0l-0.2-0.2h-0.2H422l-0.7,1h-0.2l-1.4-0.2l-1.2-0.7l-1.2-0.2l-0.7-0.5v-0.5l0.2-0.2l0.5-0.2l0.2-0.2
	v-0.2l-0.7-0.2l-0.2-0.2l0.2-0.2l-0.2-0.5l-0.5-0.7l-0.2-0.2l-0.2-0.2v-0.2v-0.2l0.2-0.7l0,0l-0.5-0.5l-0.2-0.2v-0.2l0.5-0.5
	l0.2-0.2h0.2l0,0l0,0l0,0l0,0l0,0l0,0l0,0v-0.5l0.2-0.2l0.5-0.7V55l0,0l0.2-0.5v-0.2v-1.2v-1v-0.2l-0.5-0.7v-0.5v-0.5V50v-0.2
	l-0.2-0.2l-0.5-0.5l-0.5-0.5l-0.5-0.2h-0.5l-0.2-0.2l-0.2-0.5v-0.6v-0.5l0.2-0.5l-0.2-0.5l-0.2-0.2l-0.2-0.2H413h-0.5l-1.2,0.2
	l-0.2-0.2l-0.2-0.7l-0.2-0.2h-0.2h-0.2h-0.2l0.7-0.2l0.2-0.2l0.2-0.2l0,0h-0.5l-0.5-0.2l-0.7-0.7l-1-0.5l-0.2-0.2l-0.5-0.7l0,0l0,0
	l0,0l0,0l0,0l-0.7-0.5l0,0v-0.2v-0.2l0,0h-0.2l-0.2,0.2h-0.2l-0.2-0.2l-0.2-0.2v-0.2l0.2-0.2v-0.2v-0.2v-0.2v-0.2v-0.2h-0.2
	l-1.7-0.2h-0.7h-0.2l-0.2,0.2l-0.2,0.2v0.7l-0.2,0.2l-0.2,1l-0.5,0.5l-0.2,0.2h-0.2l-2.1-1H399h-0.2l-0.2-0.2h-0.2h-0.2H397h-0.2
	h-0.2h-0.2h-0.2l-0.5,0.2l-1-0.2l-0.5,0.2l-0.2,0.2l-0.5,0.5l-0.5,0.5l0,0h-0.2l-0.5-0.5H392h-0.5h-0.2l0,0v-0.2V41l0,0l0,0
	l-0.2,0.2h-0.5h-0.2l-1.4-0.5l-0.2,0.2l-0.8,0.2h-0.2v0.5l-0.2,0.2l-0.2,0.2h1.2h-0.2h-0.5h-0.2l-0.2,0.2H387l-1.2,1h-0.2h-0.2h-0.2
	l-0.2,0.2l-0.5,0.5l-0.5,0.5l-0.2,0.2h-0.2h-0.2h-0.2l-0.5,0.2h-0.2l-0.5-0.2h-0.2h-0.2l-1,0.7l-0.7,1h-0.2h-0.2H379h-0.2v1
	l-0.5,0.2h-0.2h-0.5l-0.5-0.2l-2.1,1.4l-0.5,0.2l-0.2,0.2l-0.5,0.2h-0.2l-0.5,0.2h-0.2H372l-0.2-0.5l-0.7-0.7h-0.2l-0.7,0.2
	l-0.2,0.2h-0.2h-0.2l-0.7-0.5l0,0h-0.2h-0.2l-0.2-0.2h-0.2l-0.2,0.2h-0.2h-0.5l-0.5-0.2l-0.7-0.7l-0.7-0.7l-0.2-0.2l-0.7-0.2h-0.2
	l0,0l0,0l0,0l-0.7,0.5h-0.2h-0.2l-0.2,0.2H362h-0.2l-0.5-0.2H361h-0.5h-0.2l-0.2,0.2l0,0l-1,0.2h-1.4h-0.2l-0.2,0.2l-0.2,0.5l-1,0.2
	h-0.2l0,0l0,0l-0.2,0.2h-0.2h-0.2l0,0l0,0h-0.2h-0.2v0.7l0,0l-0.2-0.2l0,0h-0.2l-0.5,0.2h-0.2l-0.5,0.5l-0.2,0.2h-1h-0.2h-0.2
	l-0.5-0.2l-0.5,0.2H350l-0.5-0.7h-0.2h-0.5h-0.2l-0.5-0.2h-0.7l-1.4-0.5h-0.5l-0.5,0.2l-0.2-0.5l-0.2-0.2l-0.2-0.2l-0.7-0.2
	l-0.2-0.2v-1h-0.2l0,0l-0.2,0.2h-0.2l-0.2-0.2l0,0l-0.2,0.2l-0.2,0.2l-0.2,0.2h-0.2l-0.2,0.5v0.2l0,0H341l0,0h-0.2h-0.5H340
	l-0.2-0.2l0,0l-0.5-0.2l-0.5-0.2l-0.2-0.2h-0.2h-0.2H338h-0.2l-0.2-0.2l-0.5-0.2h-1.7H335l-0.5-0.2h-0.2h-0.2v-0.2v-0.7l-0.2-0.5
	l-0.5-0.2l-1.9-1l-0.7-1h-1h-0.2h-0.2h-0.2l-0.2,0.2l0,0v0.2l0,0l0,0l-0.5,0.2v0.2v0.2l-0.7,0.5l-0.5,0.2h-0.2h-0.2l0,0h-0.2h-0.2
	l0,0l-0.2-0.5l0,0h-0.2h-0.2l0,0v-0.2v-0.2V43l0,0h-0.2l-0.7-0.2l-0.2-0.2l-0.5-0.7l-0.2-0.2l-0.5-0.7l-0.2-0.2v-0.2v-0.5l0,0v-0.2
	v-0.2V39l-0.2-0.5l-1-1.2l0,0v0.2l-0.7-0.7l0,0h-0.2l-0.2,0.2l-0.2,0.2v0.5v0.5l0,0V38l0.2-0.5v-0.4h0.2l0,0l0,0l0,0l0,0h-0.2
	l-0.5,0.5h-0.2h-0.2l-1.7-0.2l-0.7,0.2l-0.5,0.2h-0.2H316h-0.5l-0.5-0.2l-0.7-0.2l-0.2-0.2l-0.2-0.2h-0.5l-0.7-0.2l-0.2-0.2
	l-0.5-0.5l-0.5-0.2l-0.2-0.2l-0.2-0.2v-0.2h0.2l0,0l-0.7-0.5l-0.5-0.5l-0.2-0.7v-0.2v-0.2v-0.5v-0.5V32l0.2-0.2h0.2h0.7l0,0
	l-0.2-0.2l0,0h-0.2h-0.2l-0.2,0.2H310h-0.5l-0.5-0.7l0.2-0.2l0,0v-0.2l0,0l-0.2-0.2v-0.2l0,0l0,0l0,0l0,0h-0.2h-0.5h-0.2v0.5
	l-0.2,0.5l-0.5,0.5l-0.5,0.2l-0.5,0.5h-0.2l-0.7,0.2h-0.7h-1.7l-0.5-0.2l-0.2-0.2h-0.2h-0.5l-1.2,0.5l-4.1-0.5l-1.7,0.2l-0.2-0.2
	h-0.2l-2.6-0.2l-0.7-0.2h-0.2h-1.4l-1-0.2h-0.5l-1.9,1.2l-1.9,0.7l-0.5,0.5l-0.5,0.2l-1,0.2h-0.2l-0.2,0.2h-0.5H281h-0.2h-0.2
	l-0.7,0.2h-0.2l-0.2-0.2H279l-0.2,0.2l-0.2,0.2h-0.2l0,0h-0.2H278l-1,0.5l-0.2,0.2l-0.2,0.2h-0.2l0,0v-0.2l0,0l0,0l0,0l0,0h-0.2l0,0
	l0,0h-0.7L275,36l-0.2,0.5l0,0l-1,1.4l-0.2,0.5l-0.2,0.2l-1.2,0.5H272l-0.5,0.5l-1.4,0.7l-2.6,1.7l-1.9,0.7h-0.2l0,0l-0.2,0.2l0,0
	h-0.5H264l-0.2,0.2v0.2l0.2,0.2l0,0v0.2v0.2v0.2v0.2v0.2v0.2l-0.2,0.2l-0.7,0.7l-0.5,0.2l-0.5,0.2l0,0l0,0l0,0l0,0l0,0h-0.2l0,0
	h-0.5h-0.2H261h-0.2h-0.2l-0.2,0.5h-3.1h-1.2l-0.2-0.2l-0.5-0.5l-4.1-1l-0.5-0.2h-0.5l-0.2-0.2h-0.2v0.5l0,0l0,0v0.2v0.2l0,0h-0.2
	l-0.2,0.2H249h-0.2h-3.1l-3.3-0.5l-2.4-0.5l-2.4-0.5h-0.2h-0.7l0,0h-0.5l-0.5,0.2l-0.5,0.5l-0.2,0.5l0.2,0.2v0.7l-0.2,0.2l-0.2,0.7
	l-0.2,0.2l-0.2,0.2l-0.2,0.2v0.2V48v0.2h0.2l0,0l0,0l0,0l0,0l0.7,0.5l0.5,0.2l0.2,0.2l0.2,0.2l0.7,0.2l0.2,0.2h0.2l0.2,0.2l0.2,0.2
	l0.2,0.2l0,0l0,0l0,0l0,0l0,0h-0.2v0.8l0,0l0,0l0,0l0,0h0.2h0.2l0,0l0,0l0,0h0.2l0,0l0,0v0.2l0,0l0,0l0,0l0,0h0.2v0.2v0.2v0.4h0.2
	h0.2l0.2-0.2h0.2l2.9-0.2h0.2l0.5,0.2h0.2l0,0l0.2,0.2h0.2h0.2l0,0l0,0l0,0l1-0.2h0.5l0.2,0.5l-0.2,0.2h-0.2l-0.2,0.2h-1.4l-2.4,0.5
	h-0.2v-0.2l-0.2-0.2h-0.2H240h-0.2h-0.2l0,0v0.2v0.2h-0.2h-0.2l0,0H239l0,0v-0.2l0,0l0,0l-0.2,0.2l-0.5,0.2l-0.5,0.2l-3.6,0.2H234
	l-0.5,0.5l-0.5,0.2l-1,0.2l-0.5,0.2l-0.2,0.5l0.7,0.2l1.2,0.7l0.7,0.2h0.2l0.2-0.2l0,0h0.7h0.2l0.2,0.2l0.2,0.2l0.2,0.2h-0.2h-0.2
	h-0.2H235v0.2v0.5v0.2l-0.5,0.5h-0.2h-1h-0.2H233l-0.2-0.2h-0.2h-0.2h-0.5l-0.5-0.2h-0.2H231l-0.2,0.2h-0.7l0,0l-0.2,0.2l0,0l0,0
	l0,0l0,0l0,0l-0.5-0.2l-0.5-0.2h-0.5l-0.5,0.2V58l0,0l0,0h0.2h-1.2h-0.7l-2.9,0.2l-1,0.5h-1l-0.5-0.2V58l0.2-0.2l1.2-0.5l0.2-0.5
	l-0.2-0.2l-1.2-0.5l-2.1-0.2l0,0l0,0l0,0l0,0l0,0l-0.2-0.2l-0.2,0.2l0,0l0,0h-0.2l-0.2,0.2h-0.2h-0.2l0,0v0.2l0.3,0.8l0,0l0,0l0,0
	l0,0v0.2l0,0l0,0v0.2l0,0l0,0l0,0v0.2v0.2l0,0h0.2l0.7,0.2h0.2l-0.2,0.2l-0.7,0.2L218,59h-0.2h-0.5H217l-0.2,0.2h-0.2l-0.2-0.2h-0.2
	H216l-0.5,0.2h-0.2h-0.2l-1-0.2v-0.2l-0.7-0.5l-0.5-0.5l0,0l0,0l0,0l0,0l0,0l0.2-0.2l-0.2-0.5l-0.2-0.2l-0.2-0.2H212l-0.5,0.2h-0.2
	h-0.5h-0.5h-0.5l-0.5,0.2l-0.2,0.5l-0.2,0.2h-0.2H208l-0.2-0.2h-0.2H207h-1.2h-0.5l-0.2,0.2l-1.4,1.7l-0.2,0.2h-0.2l0,0l0,0
	l-0.5,0.7l0.2,0.7h-0.5l-0.2,0.2H202h-0.2l0,0l0,0v0.2v0.2v0.4v0.2v0.2l0,0l0,0h-0.2l0,0l0,0l0,0l0,0l0,0v0.2v0.4v0.2l-0.5,0.5h-0.2
	l-0.5,0.2l-0.2,0.2l-0.7-0.2l0,0l-0.2,0.5v0.2v0.2v0.2v0.2v0.2v0.2l0,0l-0.2,0.7v0.2h0.2v0.5v0.5v0.7l0,0l0,0l0,0v0.2v0.2l0.2,0.5
	v0.2v1v0.5l-0.5,0.5l-0.2,0.7l-0.2,1v0.2l0.5,0.2h0.5l0.2-0.5h0.2l0,0l0,0l0,0v-0.2h0.2h0.2h0.2h0.7h0.2l0,0l0.5-0.2h0.2l-0.2-0.2
	h0.2l4.5-0.7l0.2,0.2h0.2l0.2-0.2l0.2-0.2h0.5l0.2,0.2v0.2v0.2l-0.2,0.7v0.3l0,0l0,0h-0.7l-0.2,0.2l0.2,0.2l-0.2,0.2H207h-0.5v0.2
	l0,0l0,0l0,0l0,0l0,0l-1.4,1l-0.2,0.2h-0.2h-0.2v0.2v0.2l0,0l0,0l0,0h-0.2l0,0h0.2l0,0l0,0h-0.2v0.2v0.2l-0.2,0.2h0.2h0.2h0.7h0.2
	v0.2v0.2v0.6v0.2l0.7,0.5h0.2l0.5,0.2l0.2,0.2l0.2,0.5l0.2,0.5v0.2l-0.2,0.2H207l-0.2,0.2V80l-0.2,0.2h0.2l0,0l0,0l-0.2,0.2v0.5v0.5
	l0.2,0.2h0.2l0.2,0.2h0.2h0.2l0.5-0.2l0.2-0.2l0.2,0.2l0,0l0,0h0.2l0,0l0.2,0.2l0,0h0.2h0.2h0.2l0.2-0.2l0.2,0.2V82l-0.2,0.5h0.2
	v0.6l-0.2,0.2l-0.2-0.2v0.2l-0.2,0.2h-0.2h-0.2l0.2,0.5l-0.2,0.2h-0.2V84l-0.5,0.2l0,0l0.2,0.5v-0.2v0.2v0.2l0,0v0.2l0,0l0,0l0,0
	h-0.2v0.2H208l0,0l-0.2-0.2h-0.2h-0.2l0,0l0,0l0,0l0,0l-0.5,0.2l-1-0.5l-0.2,0.2v0.2v0.2l0.2,0.5h-0.2l0,0l0,0l0,0l0.2,0.2h0.2h0.2
	l0,0v0.2l0,0h0.2h0.2h0.2l0,0v0.2h0.2h0.2l0,0l0.2,0.2v0.2v0.5v0.7h0.2l0.2,0.2l0.2,0.2l0.2,0.2l0,0h-0.2l-0.2-0.2l-0.2-0.2
	l-1.2-0.5l0.5,0.3l0.2,0.2h0.2h0.2h0.2l0.5,0.7l0.2,0.2v0.2l0,0l0.2-0.2l0.7-0.2h0.2l0.2,0.2l0,0h0.5h0.2l0,0l0,0l0,0h0.2l0,0
	l-0.2,0.5l-0.2,0.2l-0.2,0.2l-0.2-0.2l0,0l0,0h-0.2h-0.2l0,0h-0.2l0,0l-0.2,0.2l0,0h-0.2l-0.7,0.2h-1H207h-0.2h-0.2v-0.2l0,0h-0.2
	l0,0l-0.2-0.7l-0.2,0.2h-0.2l0,0l0,0h-0.2l-0.2,0.2l-0.2,0.2v0.2v0.7l0.2,0.2v0.2v0.2h-0.2l-0.2-0.2l-0.2-0.7v-0.5v-0.2v-0.2h-0.2
	v-0.2v-0.2v-0.2h-0.2h0.2h0.2h0.2l0,0l0,0l0,0l0,0v-0.2v-0.2v-0.2v-0.2v-0.2l0,0l0,0l0,0l-0.2-0.5l-0.2-0.5v-0.2l-0.2-0.2l-0.5-0.5
	l-0.2-0.2l-0.2-0.2h-0.2h-0.2h-0.2l-0.2,0.2h-0.2h-0.2v0.2v0.2v0.2l-0.5,0.7l0,0l0,0l0.2,0.5v0.3l0,0l0.5,0.5v0.2V89v0.2l0,0h0.2
	l0,0V89l0,0h0.2l0.2,0.2h0.2l0.2,0.2h0.2l-0.2,0.5l0,0l-0.2-0.2h-0.5l0,0l0.2,0.2v0.2v0.2l-0.2,0.2l0,0l-0.2,0.5h-0.2h-0.2l0,0
	l-0.2-0.2l0,0V91l0,0h-0.2h-0.2l0,0l0,0l0,0l0,0l0,0l0,0l0,0l0,0v-0.2v-0.2v-0.2v-0.2l0,0l0,0l0,0v0.2l-0.2-0.2v0.2v0.2l0.2,0.2l0,0
	h-0.2V91l-0.2,0.2l-0.7,0.5v0.4l0,0l0.7,0.2l0,0l0.5,0.2h0.2h0.2v-0.4l0,0v0.2v0.2v0.2v0.4l0.2,0.2l0,0l0,0l0,0v-0.2l0.2,0.2
	l0.2,0.2l0.2,0.2h0.2v0.2v0.2v0.2h1h0.2h0.2v-0.2v0.2l0.2,0.5l0,0h0.2v-0.2v-0.2v-0.2l0,0l0,0l0,0l0,0l0.2-1h0.2h0.7h0.2h0.2h0.2
	l0.2,0.2v0.5v0.2h0.2v0.2l0.2,0.2v-0.2v0.2v0.2v0.2v0.2l0.2,0.5l0,0l0,0l0,0l0,0l0,0l0,0h0.2h0.5h0.2l0.7,0.2h0.5l0,0V96l0,0l0,0
	l0,0l0,0h0.2l0,0l0,0l0,0l0.2,0.2h0.5h0.5h0.2l0.2,0.5v0.2l-0.2,0.2v0.2v0.8v0.2v0.2l0,0l-0.2,0.2l0,0v0.4v0.2v0.2v0.2v0.2v0.2v0.2
	v0.2l-0.2,0.5h-0.2l-1,0.5h-0.2h-1H208h1.2l0.5,0.2l1.2,0.2l0.7,0.7h0.2v0.5v0.2v0.2l-0.2-0.2v0.2l0,0l0,0l0,0v0.2v0.4v0.2v0.2v-0.2
	l0,0l0,0l0,0h0.2v0.7v0.2l0,0l0,0h-0.2v0.2v0.2v0.7v0.2l0,0l0,0l0,0l0,0l0,0l0,0l0,0l0,0l0,0l0,0v0.2l0.2-0.2h0.2h0.7l0,0l0.5-0.2
	l0,0h0.2l0.2-0.2v-0.2v-0.2h0.2h0.2h0.2l0.2,0.2l-0.2,0.2l-0.2,0.2v0.2v0.2l0.2,0.2h0.2l0.2-0.2v-0.5l0,0l0.2,0.2v0.2v0.2v0.2
	l-0.2,0.2v0.2v0.2l0,0h0.2v-0.2l0,0h0.2l0.2,0.2v0.2L215,108h0.2h0.2l0.2-0.2v0.3v-0.2h0.2h0.2l0,0l0,0l0,0l0,0l0,0h0.2l0,0v0.2l0,0
	l0,0H216l0,0v0.2l0,0h0.2l-0.2,0.2l0,0h-0.2l0.2-0.2h-0.2l-0.5,0.2l0,0h0.2v0.2v0.5l0,0l0,0h0.2l0,0h-0.2h-0.2h-0.2l0,0h-0.2
	l-0.2,0.2h-0.2h-0.2l-0.2-0.2l0,0l0,0l0,0l0,0h-0.2l0,0l0,0l0,0h-0.2l0,0l0,0v-0.1l0,0l0,0l0,0l0,0l0,0l0,0v0.2v0.2l0,0v-0.2v-0.2
	l0,0h-0.2v0.2v0.2v0.2l0,0h-0.2l-0.5-0.2l-0.2,0.2l0,0l0,0l0,0l0,0l0,0l0,0l0,0l0,0l-0.2,0.2l-0.2,0.2H212l0,0v1v0.2v0.2v0.2v0.2
	v0.2l0.2,0.2h0.2v0.2l0,0l0,0l0,0l0,0v-0.2h0.2l0.2-0.2v-0.2v-0.2l0,0h0.2h0.2l0,0l0,0l0,0l0,0l0,0l0,0l0,0l0,0l0,0l0,0l0,0l0,0l0,0
	h0.5v-0.2l0,0l0,0l0,0l0.2-0.2h0.2l0,0l0.2,0.2h0.2h0.2h0.5h0.2h0.2l0.2,0.2v-0.5h0.2l0.2,0.2l0.2,0.2l0.2-0.2l0.5-0.2h0.5l0.2,0.2
	h0.2h0.2h0.2l0,0v-0.2l0,0l0,0h0.2l1-0.2h0.2h0.5h0.2h0.2l0.2-0.2h0.2l1.4,0.2l0.2,0.2V111v-0.2h0.2h0.7l1.7-0.2h0.2l0,0l0,0l0,0
	H225l-0.7,0.2v0.2l0,0h-0.2l-0.2-0.2v0.2v0.2h0.2l0,0l0,0l-0.2,0.5l0,0l0,0l0,0l0,0l0,0l0,0l0,0l0,0l0,0l0,0l0,0l0,0l0,0v-0.2l0,0
	l0,0l0,0l-0.2-0.2h-0.2l0,0l0,0l0,0l0,0l0,0l0,0h-0.2h-0.2l0,0h0.2l0,0l0,0h-0.2l0,0l0,0l0,0l0,0l0,0l0,0h-0.2v0.2v0.2l0.2,0.2l0,0
	h-0.2l0,0l0,0l0,0l0,0l0,0l0,0l0,0l0.2,0.2v0.2l0,0l0,0l0,0h0.2h0.2l0,0v0.2l-0.2,0.2l0,0v0.2l-0.2-0.2h-0.2h-0.5h0.6h-0.2h-0.2l0,0
	h-0.2h-1.2H221l-2.1,2.4h-0.2h-0.2H218h-0.2h-0.2l-0.5-0.2h-0.2v0.2v0.2v0.2h-0.2h-0.5h-1H215l0,0h-0.2l-0.2,0.2v0.2v0.2h-0.2h-0.2
	H214h-0.2l0,0l0,0l0,0l0,0l0,0l0,0l0,0l0,0l0,0h0.2h0.2l0,0v0.2h0.2h0.2h0.2l0,0l0.2,0.2l0,0l0,0l0,0l0,0l1-0.2v0.2h0.2h0.2h0.2h0.2
	h0.2l0.5,0.2v-0.2l0.2-0.5v-0.2l0,0h0.2l0.2-0.2h0.2h0.2h0.2h0.2h0.2l0,0h0.2h0.2l0.2,0.2l0.2,0.2l0,0v-0.2l0,0l0,0l0,0l0,0l0,0l0,0
	v0.2h0.2l0.2-0.2l0,0v0.2l0,0h0.2l0.5-0.2l0.2-0.2v0.2l0,0l0.2-0.2l0.2-0.2l0,0h0.2h0.2v0.2v0.2v0.2l-0.2-0.2l0,0l0,0l0,0l0.2-0.5
	l0,0l0,0l0,0h0.2l0,0v0.2l-0.2,0.2h-0.2v-0.2h-0.2h-0.5l0,0l0,0l0,0l0,0l0,0h-0.2l0,0h-0.5l0,0v0.2h0.2h0.2l0,0l0,0h0.2h0.2l0,0
	v-0.2l0,0h0.2l0.2,0.2v0.2v0.2l-0.2,0.2l0,0l0,0l0.2-0.2l0.2,0.2l-0.2,0.2l-0.2,0.2l-0.2,0.2H221h-0.7l0,0l0,0l0,0l0,0l0,0l0,0
	l0.2,0.2h0.2h0.2l0.2-0.2v0.2l0,0h0.2h0.2l0,0l0,0l0,0l0,0l0,0l0,0l0,0h0.2l0.2-0.2l0.2-0.5l0.2-0.2l0.2-0.2l0.2-0.2l0.7-0.2l0,0
	l0,0l0,0l0,0l0,0l0,0l0,0l0,0l0,0v-0.2h0.2h0.2h0.2v-0.2l-0.5-0.5v-0.2l-0.2-0.2v-0.2v-0.2l0.2-0.2h0.2h0.2l0.2,0.2h0.2l0,0h-0.2
	h-0.2v0.2v0.2h0.2h0.2l0,0v-0.2l0,0h0.2l0.7,0.2h0.2l0.2-0.2v-0.2l0.2-0.2l-0.2-0.2l0,0l0,0l0,0l0,0l0,0l0,0h0.2h0.5h0.2v-0.2v-0.2
	l0,0l0,0v0.2l0,0l0,0l0,0l0,0l0,0l0,0l0,0v0.2v0.2h0.2h0.2l0,0h-0.2h0.2h0.2h0.2h0.2v-0.5l0.2-0.2h0.5l0.2,0.2v0.2l0,0l0,0l0,0l0,0
	v-0.2l0,0l0,0l0,0l0,0l0,0l0,0l0,0l0,0l0,0l0.2,0.2v0.2v0.2v0.2l0.2,0.5l0,0l0.2-0.2h0.2h0.2v0.2l0,0l0.5-0.2h0.5l0.5,0.2v0.5h0.2
	h0.2h0.2h0.2l0,0h-0.2l0,0v0.2l0.2,0.2h0.2h0.2h0.2v-0.2l0.2-0.2l0.2-0.2v-0.2l-0.2-0.2v0.2v0.2l0,0v0.2l0,0l0,0l-0.2-0.2l0,0l0,0
	l0,0v-0.2h0.2l0,0v-0.2v-0.2l0,0l0,0h0.2l0,0l0,0l0,0l0.2-0.2l0.2-0.2l0.2-0.2v0.2l0.2,0.2l1,0.5l0.7,0.5l0,0v0.2v0.2v0.2v0.2H235
	l0,0v-0.2l0,0h-0.2l-0.2,0.2l-0.2,0.2l-0.2-0.2v0.2v0.2l0,0l0.2,0.2v0.2v0.2h-0.2h0.2l0.7-0.2l0.2,0.2l0,0h0.2v0.2v0.5l0,0l0,0l0,0
	l-0.2,0.2l0,0h0.2l0.2,0.2v0.2v0.2l0,0l0,0l0,0l0,0h2.3h-0.2l0,0v0.2h-2.4l0,0h0.2l0,0h0.2l0,0l0,0l0,0v0.2h0.2l0.2,0.2l0.7,0.2
	l0.2,0.2v0.2l0.7,0.7l0,0l0,0v0.2l0,0l0,0l0,0l0,0l0,0l0,0l0,0l0,0h0.2l0,0l0,0l0,0l0,0v0.5v0.2l0.2-0.2l0.7,0.5h0.2h1l0.2,0.2h-0.2
	h-0.2h-0.2l0,0l0,0h0.7l0,0v0.2l0,0h-0.2l0.2,0.2l0.5,0.2v0.2l1.4,1.7l0,0h0.2l0,0l0,0l0,0h0.2h0.2h0.2l0.2,0.2l0,0l0,0h0.2l0,0l0,0
	l0,0l0,0l0,0h0.2h0.2l0.2-0.2l0.2-0.2h-0.2l0,0h0.2h0.2l0,0l0,0l0,0l0,0h0.2h0.5h0.2l0.2-0.2l0,0l0,0h0.2h0.2h0.2h0.2h0.2l1-0.5l0,0
	h-0.2h0.2h0.2l0,0l0,0h0.5l0,0l0,0h0.2V123v1.1v0.2l0,0l0,0v-0.2v-0.2v-0.2l1-0.2h0.2l1.4,0.7h0.2l0.2,0.2v0.2v0.7l0.2-0.2l0.2-0.2
	l0.2-0.2l0.2-0.2l0.2-0.2l0.2-0.2l0,0l0,0l0,0l0,0l0,0l0.2-0.2l0.2-0.2l0.2-0.2h-0.2v-0.2h-0.2l-0.2-0.2v-0.2l0.2-0.2v-0.2l0.2-0.5
	l0.2-0.5l0.2-0.2l0.5-0.2v-0.2l0.2-0.5v-0.2l0,0V120v-0.9v-0.2v-0.2v-0.2v-0.4v-0.2v-0.2l0,0l-0.2-0.2v-0.2v-0.5v-0.5v-0.2l0.2-0.2
	l0.2-0.5l0.2-0.2l0.7-0.5l0.5,0.5l0.2,0.2h0.2h2.1l5,0.7l0.5,0.2v0.5h0.5l2.4,1l0.2,0.2l0.2,0.2l1,0.5h0.2h0.2l0.2,0.2l0.2,0.2
	l0.5,0.2l0,0h0.2h0.2h0.2l0.2,0.2v0.2h0.2h0.5l0,0l0,0l0,0h0.2h0.2l0,0l0,0l0.7,0.7h0.2l0.2,0.2l0.2,0.5l0,0h0.2l0,0l0.2,0.2
	l0.2,0.2l0,0v0.2l0.2,0.5l0.7,0.7l0.2,0.5v0.2v0.5l0,0l0.2,0.2l0,0l0,0l0.5,0.7h0.2h0.2h0.2v0.2l0.2,0.2l1,0.5h0.2h0.5l0.7,0.5
	l0.5,0.2l1.2,0.2h0.5l0.7-0.5v-0.2h0.2l0.7-0.5h0.2l0.7,0.2h0.5h0.2l0,0l0,0l0,0h0.2l0.2-0.2v-0.2l-1.2-0.2h0.2h0.2l0.2,0.2h0.2h0.2
	h0.5h0.5h0.2l0.2-0.2h0.2l0.5,0.2h0.2l0.5-0.2h0.2h0.2l0.5,0.2h0.2l0,0h-0.2h0.2l0.2-0.2l0.2-0.5l0.2-0.2h0.2h0.2l0,0v0.2l0.2,0.5
	l0,0l0,0v-0.5v-0.2l0.5-0.5l0,0l0.5-0.2h0.2h0.2l0.2-0.2l0.2-0.2l0,0l0,0l0,0h0.2l0.2-0.2l0.2-0.5l0.2-0.2h0.2h0.2h0.2l0.2,0.2
	l0.2,0.5v0.5v0.2l0,0h0.2l0,0v-0.2v-0.2v-0.2l0.2-0.2l0,0l0,0l0,0l0.2-0.2l0.2-0.2h0.5l0.2-0.2V122v-0.5V121l0.5-0.2l0.5-0.5
	l0.2-0.2l0,0v-0.2v-0.2l1-1.4l0.5-0.2l1.4-1l1.2-1l0.5-0.2l0,0l0.2-0.2l0,0l0.5-0.2h0.2h0.5l0.7-0.5l0.5-0.2l0.5,0.2l0,0l1,0.5
	l0.5,0.5h0.2v0.2l0,0h0.2h0.2h0.2h0.2h0.2l0.5,0.2l0.2,0.2l3.1,1.9h0.2h0.2l0.2,0.2h0.2l0,0l0.2-0.2h0.2l0,0l0,0l0,0l0.2-0.2l0,0
	h0.5l0.5,0.2h-1l0,0h-0.2v-0.4l0,0h0.2h0.2l0.5,0.5h0.2h0.5l0,0v-0.2h0.2l0,0v-0.3v-0.2v-0.2v-0.2v-0.2v-0.2l0.5-0.5h-0.2h-0.2
	l-0.2,1h-0.2v-0.2l0.2-0.2l0.2-0.2l0.7-0.2H313h-0.2h-0.2h-0.2l0,0v-0.2l0,0h-0.2l0,0l0,0l0,0l0,0l0,0l0,0l0,0l0,0v0.2h3.8l-0.2,0.2
	v-0.2v-0.2l0.2-0.2l0.2-0.2l0,0l0,0l0,0l0,0h0.2l0.2-0.2l0.2-0.2l0.5-0.2h1h0.5l0.2-0.2l0.5-0.5h0.2h0.2l0.2-0.2l0.7-1l0.5-0.5
	l0.5-0.2l0.5,0.2l0.5,0.2l0.5,0.5l0.7,1l0.2,0.2v0.2v1l0,0v0.2v0.2v0.2v0.2v0.2l-0.7,1.2v0.2h-0.2h-0.2l-1.4,1h-0.2v0.2l-0.5,0.7
	l0,0l-0.5,0.2l0,0l0,0h-0.2v0.2v0.2l0,0H320l0,0l-0.2,0.5l0,0h-0.2h-0.2h-0.2v0.2l-0.2,0.5v0.2l0.2,0.2l0.2,0.2l0.2,0.2l0.2,0.2
	l0.2,0.5l0.2,0.2l0.2,0.2l1,1.4l0.2,1v0.2h-0.2l-0.5,1l-0.2,0.2l0,0h0.2h0.2h0.2l0.2,0.2v0.2v0.2v0.2l0.2,0.2h0.2h0.5l0.5,0.2
	l0.7,0.5h0.2l0.2-0.5v-1.2l0.2-0.5l0.5-0.2h0.2h0.2v-0.5l0,0l0,0h0.2l0.5,0.2h0.2v-0.5v-2.1v-0.2l0,0l0,0v-0.2l-0.2-0.2l0.2-0.2
	l0.2,0.2h0.2h0.2h0.2l0,0l0,0l0,0l0,0l0,0l0,0h0.2h0.2l1,0.2h0.2l1-0.2v-0.2v-0.2v-0.2v-0.2l-0.2-0.2l-0.2-0.2h-0.2h-0.5l-0.5-0.2
	l0,0v-0.2v-0.2v-0.2l0,0l0,0l0,0l0,0h-0.2l0,0l0,0l-0.2-1v-0.2v-0.2l0.5-0.5v-0.9v-0.7l0.2-0.7l0.2-0.5V117v-0.2v-0.2l0.2-0.2
	l0.2-0.2l0.2-0.2v-0.5l0,0l0,0l2.4,0.7h0.7h0.2h0.2l0,0l0.2,0.2l0.5,0.2v0.2v0.2v0.5v0.2l0.2,0.2l0.2,0.2l0,0v-0.2l0.2-0.2h0.2h0.2
	h0.2h0.2l0.7-0.2h0.2l1.9,0.5h0.5l1.9-1.2l0.7-0.2l2.1-0.5l1.9-1h0.2l1.4-1l1-0.2h0.5h0.7l2.4,0.7l0.7,0.2l1.7,1.7l0.7,0.5h1h1.9
	h0.2h0.7l1.9,0.7h0.7l6.4-1.2l2.6-1l1.2-0.7l0.5-0.2h0.5l0.5-0.2l2.6-1.7l0.2-0.2h0.2h0.2h0.2l0.5-0.2l1.7-1l0.7-0.2l2.4-0.2
	l2.9,0.7l0.5,0.2h0.2l3.6-0.2l6.7-1.7l0.5-0.2l1-1l0.7-0.7h0.2l0.2-0.2l0.2,0.2v0.2v0.2l0,0h0.2l0.5,0.2l0,0l0,0l0,0l0,0l0,0v0.2
	l0,0l0.5,0.2l0,0v0.2l-0.2,1l0.2,0.2l0,0v0.2v0.5h0.5l0.7-0.2l1-0.2h0.2l0,0l0.2-0.5l1.7-2.4v-0.2l0,0l0,0v-0.2l0,0l0.7-0.2l0,0h0.2
	l0,0v0.2l0,0l1,0.2h0.5l0.5-0.2l0.2-0.2l0.5-0.2l1.9-0.5h0.5h0.2l1.7,1l0,0l0,0l0,0l0,0l0,0h0.2h0.2l0.5,0.5l0.5,0.2l0.5,0.5h0.2
	h0.2h0.2h0.2h0.2l0,0l0.2,0.2l0.2,0.2h0.2h1.2h0.2h0.2h0.2l0.2,0.2l0,0h0.2l0.2-0.2h0.7l0.5-0.5l0.5-0.5l0.5-0.5h0.5h0.7l1.2,0.5
	l0.2,0.2l0.2,0.2l0.2,0.2v0.5v0.2v0.2v0.2v0.2h-0.2h1.5h-0.2l-0.2,0.2v0.2v0.2v0.2l0.5,1.2v0.2l0,0l0.5,0.2h0.2l0,0v-0.2l0,0
	l0.2-0.2v-0.2v-0.2l2.1-0.7l0.2-0.2l0.2-0.2l0.2-0.5l0.5-0.5l0.5-0.2l0.5-0.2h0.2l1.2,0.2l0.2,0.2l0.2,0.2v-0.2v-0.2v-0.2l0,0v-0.2
	l0.2-0.2h0.2l0.2-0.2V108l-0.2-0.2L429.9,106.9z M197.5,53.3v0.5V54v0.2v0.2v0.2h0.2h0.2h2.4l0.7-0.2h0.2l0.2,0.2h0.2h0.2h0.2h0.2
	h0.2l0.2,0.2l1-0.5h0.2h1h0.2l0.2-0.5l1-0.2v0.2l0.5,0.7l-0.2,0.5l-0.2,0.2l-0.5,0.2l-0.2-0.2l-0.2,0.2l-0.2,0.5l-0.2,0.2h-0.2h-0.5
	h-0.2h-0.5l-0.5,0.2l-0.5,0.5l-0.7,0.5l-0.5,0.5l-0.7,0.5l-0.2,0.2h-0.2l-0.7,0.2l0,0l0,0l-0.2,0.2v0.2l0,0h0.2l0,0l0,0h-0.2
	l0.5,0.2l0.2,0.2V60l-0.2,0.5l-0.5,0.7v0.2v0.7l-0.2,0.2l-0.2,0.2l0,0v0.2v0.4l0,0h0.2l0.5,0.5l0,0l0.5-0.2l0.5-0.2l0.2-0.2l0.5-0.5
	l-0.2-0.2l-0.2-0.2v-0.2l0.2-0.5h0.2h0.5l0.2-0.2l0.2-0.2l0.2-0.5l0,0l0,0l0.2-0.2l0.2-0.2h0.5l0,0l0.7-0.7l0.2-0.2V59v-0.2v-0.2
	l0.5-0.2l0.2-0.2v-1.1h0.2h0.2l0.5-0.2l0.2-0.2l0.5-0.2h0.2l0.2-0.2l0.7-0.5l0.5-0.2h0.5h0.2l0.5-0.5l0.2-0.2h0.2h0.5l0.2-0.2h0.2
	h0.2l0,0l0.2-0.5l0,0l1.2-0.7l0.5-1l1.2-1.2l0.2-0.5l0.2-1.4l0.2-0.5l0.5-0.2l2.6-0.5h0.5l0.5,0.2l0.2,0.2l0.2,0.2l0.2,0.2l1,0.2
	h0.2V49v-0.2l0.2-0.5l0.2-0.2l0.2-0.2h0.2h0.2l0.7-0.2h0.2l0,0l0.7-0.2l0.2,0.2h0.2h0.5l0,0l0.2,0.2l0,0h0.5h0.5l1,0.2h0.5l0.2,0.2
	l0.7,0.7h0.5l0.2-0.2v-0.2v-0.2v-0.2V48l-1-0.7v-0.2h0.2l0.2,0.2l0.2,0.2V48l0,0l0,0l0.2,0.2v0.5l0.5,0.2l1.4-0.2h0.2l0.2,0.2l0,0
	h0.2h0.2h0.2l0,0l0,0l0,0h0.2h0.5l0.2-0.2h0.2l0,0v-0.2l0,0l0,0l0,0h0.2l0,0l0,0l0,0l0,0l0,0l0,0l0,0v-0.2l0,0h0.2l0,0l0.2-0.2v-0.2
	v-0.2v-0.6l0,0l0,0l0,0l0,0l0,0l0,0v-0.2v-0.2l0,0h0.2l0.2-0.2l0.2-0.2l0.2-0.2v-0.5l-0.2-0.2l-0.2-0.2h-0.2l0,0v0.2l0,0l0,0l0,0
	l0,0l0,0l-1.4-1.2l-4.1-1.9l-2.6-1.2l-1.9-1.2l-0.7-0.7L222,39l-0.2-0.2l-0.2-0.2l-0.2-0.2l-0.2-0.2V38l0,0l0,0l0,0l0,0l0,0l0,0l0,0
	v-0.2v-0.7l-0.2-0.2l-0.2-0.2l-0.2-0.7l-0.2-0.2l-0.2-0.7l-0.2-0.2v-0.5v-0.5v-0.2h0.2h0.2h0.2h0.2l0,0l0,0v-0.2l0,0l0,0v-0.2
	l-0.2-0.7h-0.5h-0.2h-0.7H219l-0.2-0.2h-0.2l0,0h-0.2l0,0l0,0l0,0l0,0v0.2v0.2V33h0.2l0,0h-0.2h-0.2l-0.5-0.2l0.3-0.7h-0.5l-0.7,0.5
	v0.2l0,0l0,0l0,0V33h-0.2h-0.2l0,0l0,0l0,0l0,0l0,0l0,0l0,0h0.2h-0.2h-0.2l-0.2-0.5l-0.2-0.2l-1-0.5l-0.2-0.2l-0.2-0.2l-0.5-0.7
	l-0.2-0.2l-1-0.2H212h-0.2h-0.2l-0.2,0.5l0,0l0,0l0,0h-0.2H211h-0.2l-0.2-0.2l-0.2-0.2h-0.2H210l-0.2,0.2l-0.2,0.7l-0.2,0.2h-0.2
	v0.2v0.2l-0.2,0.2l0,0h-0.2H208l-0.2,0.2l0,0l0,0h-0.2h-0.2l-0.2,0.2l0,0H207l-0.2-0.2l0,0h-0.2l-0.2,0.2h-0.2H206l-1.2-0.2h-0.2
	l-0.2,0.2l-0.5,0.5l0,0l0,0l0,0l0,0h0.2l0,0l0,0v0.2l0,0v0.2v0.2v0.2l-0.2,0.2l-0.7,0.7H202l-0.5,0.5l-0.2,0.5v0.5v0.2l0.2,0.2h0.2
	h0.2l0.2,0.2l0.5,0.2h0.2h0.2v0.2v0.2l0.7,0.5l0.5,0.2l0.2,0.2l0.2-0.2v0.2v0.2l0,0l0,0v0.2v0.5v0.2l-0.2-0.2v0.2v0.7l0.2,0.7V41
	v0.2v0.9v0.2l-0.2,0.2h-0.2H204l-0.2-0.2l-0.2-0.2l-0.7,0.7h-0.2l0,0l0,0l0,0l-0.2,1l-0.2,0.2h-0.2h-0.7l-0.2,0.2l0.2,0.2l-0.2,0.5
	v0.2v0.2l0.2,0.2l-0.2,0.5v0.2h0.2l0,0l-0.2,0.5v0.4l0.2,0.5v0.2l0.2,0.2v0.2v0.2l0,0h-0.2l0,0l0,0v0.2l0.2,0.2h0.2l0,0l-0.2,0.2
	h-0.2l-0.2,0.2l-0.2,0.2l0,0l0,0l0,0h-0.2l0,0l0,0l0,0l0,0l0,0v0.2v0.2l0,0l0,0l0,0v-0.2v0.2l0,0l0,0l0,0l0,0l0,0l0,0l0,0h-0.2l0,0
	l0,0V50l-0.7,0.5l-0.7,0.7v0.9l-0.2,0.2l-0.5,0.2H198l0,0l0,0v0.2L197.5,53.3z"/>
<g>
	<path class="st1" d="M137.8,121.7c-4.7,1.3-9.8,1.7-14.4,3.3c7.8-6.7,7.4-17.1,12.6-25c1.7-2.2,3-4.6,5-6.7
		c-3.2,6.4-1.8,14.6-5.4,20.8c-1.4,2.5-3.4,4.8-5.6,6.8c0.7,0,1.3-0.7,2-1.1c5.9-5.9,13.7-7.6,20.1-12.4c2.6-2,4.9-4.7,6-7.6
		C156.7,109.5,147,118.7,137.8,121.7"/>
	<path class="st1" d="M159.1,81.9c-2.9,4.1-6.4,8-9.1,12.2c0.3-3.3,0.7-7.4-0.6-10.6c-2.2-6.8-4.2-13.6-4.8-21.1l0.1-2.8
		c1.7,7.6,9.2,12.8,8.7,21.3c0.2,2.1-0.5,3.8-0.9,5.6l0.1,0.1l0.3-0.4c1.1-4.2,1.7-8.6,3.4-12.5c2.5-5.6,5.5-11.3,4.3-18
		C164.3,63.8,163.2,74.5,159.1,81.9"/>
	<path class="st1" d="M154.5,38.9c4.9,6.6,6,17.2,2.4,24.8c-1.3,3.2-2.3,6.7-2.8,10.2c-0.2-0.6-0.3-1.4-0.5-2.1
		c-1.9-7.4-9-12.7-11.9-19.8c-0.9-2.3-1.7-4.7-2.1-7.2c3.1,5.7,10.7,8.7,12.8,15c0.9,1.6,0.8,3.6,1.3,5.3c0.1,0,0.2-0.1,0.2-0.2
		c-0.9-6.5-0.6-13.3,0.2-19.7c-0.1-3.5-0.4-6.9-2.3-9.5C153.1,36.5,153.7,37.8,154.5,38.9"/>
	<path class="st1" d="M151.1,37.7c1.3,5.8-0.6,11.5,0.6,17.3h-0.1c-3.2-6.2-9.9-9.1-14.5-14.1c-2.7-3-3.8-6.5-4.5-10.4
		c2.7,6.4,9.8,7.8,13.9,13.1c1.4,1.2,1.8,3,2.7,4.4l0.1-0.1c-2.4-5-3.2-10.7-4.8-16c-0.8-2.3-2.5-4.6-4.6-6.1
		C145.3,26.9,150,32.5,151.1,37.7"/>
	<path class="st1" d="M136.7,24.3c4.1,3.6,5.9,8.3,7.1,13.2l0.7,1.5c-5.9-4.2-11.2-9.9-15-15.9l-4.6-4.6
		C128.9,20.2,133.3,21.2,136.7,24.3"/>
	<path class="st1" d="M43.9,19.3c-4.1,3.6-6.9,8.1-9.9,12.3c-2.7,3.3-6.2,5.6-9.2,8.4c1.7-3.4,1.7-7.5,4.1-10.7
		C32.2,23.5,38.4,21.4,43.9,19.3"/>
	<path class="st1" d="M21.7,31.7c2-2.5,4.5-4.2,7.3-4.9c-5.5,3.8-5.1,10.5-6.8,16.1c-0.6,2.1-1.5,4-2,6.1l0.1,0.1
		c0.9-2.4,2.5-4.7,4.5-6.6c3.9-3.6,9.6-5.8,11.5-11.1c-0.1,7.4-6.2,13.2-12.1,17.3c-2.4,2.1-4.8,4.6-6.1,7.3
		c-0.1-1.9,0.3-3.7,0.1-5.7C17.6,43.8,17.1,36.5,21.7,31.7"/>
	<path class="st1" d="M10.6,53.7c-0.2-6.5,2.5-11.9,6.3-16.7c0.1-0.1,0.2-0.2,0.3-0.1c-4.2,6.4-0.7,14.4-0.9,21.7L15.7,66
		c0.1,0.1,0.1,0.3,0.3,0.2c0.3-0.8,0.3-1.7,0.5-2.6c1-6,6.2-10.2,10.7-14.4c1-1.1,1.8-2.2,2.3-3.4c-0.4,3-1.3,6-2.5,8.8
		C23.6,61.4,17,67.1,15.8,75C15.2,67.4,10.1,61.7,10.6,53.7"/>
	<path class="st1" d="M7.4,63c0.5-2,0.8-4.1,1.7-6c-1.7,8.6,4.1,14.8,6,22.3c0.8,2.8,1,5.8,2.1,8.4c0.1,0.1,0.2-0.1,0.3-0.1
		c-2.8-8,1.2-15.3,5.4-21.5c1-1.7,1.6-3.6,2.1-5.5c0.4,3.6-0.5,7.7-1,11.5c-1,4.7-2.5,9.3-3.8,13.9c-0.9,2.9-0.6,6.1-0.2,9.1
		l-0.4-0.3c-3-5.5-9-9.9-10.7-16C7.4,73.9,6.4,68.3,7.4,63"/>
	<path class="st1" d="M7.1,79.8c0.7,9.1,10.5,14,15.1,21.5c1.1,1.5,2,3.3,3.5,4.6c-0.2-1-1.1-1.8-1.5-2.8c-1.6-3.2-2.2-7-1.8-10.8
		c0.4-4.7,2.4-9,1.7-13.9c4,8.7,2.8,19.4,5,28.8c0.6,2,1.8,3.9,2.5,5.8c-8.2-5.6-19.4-10.9-23.1-21.2C7,88.3,6.8,83.9,7.1,79.8"/>
	<path class="st1" d="M12.1,100.8c4.6,10.4,16.1,11.2,23.8,17.6c1.4,1.2,2.9,2.3,4.5,3.1l0.1-0.1c-1.8-1.6-3.8-3.4-5.1-5.5
		c-4.5-6.3-2.9-15.1-6.3-21.8c3.1,3.7,5.9,7.5,7.7,11.7c2.8,6.8,3.8,14.5,10.2,19.6c-6.9-2.3-15-1.6-21.1-5.9
		C19.2,115.4,13.3,108.5,12.1,100.8"/>
	<path class="st1" d="M23.9,120.2c7.3,8.4,19.4,5.6,29.2,7.8c1.4,0.2,2.7,0.7,4.1,0.5c-1.2-0.7-2.8-0.7-4.1-1.3
		c-7.7-2.7-8.8-11-13-16.6c5.3,3.5,9.8,8.3,14.7,12.9c3.5,3.1,7.8,4.5,12.3,5.4c-1.1,0.4-2.5,0.3-3.6,0.6c-8,2-17,5.2-25.5,2.3
		C32.4,130.1,26.6,125.7,23.9,120.2"/>
	<path class="st1" d="M123.7,139.7c-8.3,3.1-16.9-0.1-23.4-5c-2.6-1.7-4.9-4.1-8.3-3.8c-1.2,0-2.4,0-3.5,0.3
		c6.3,2.9,12.1,7,17.5,12.1c-0.9,1-2.1,2-3.2,2.9c-5.2-5.5-10.9-10.9-17.2-14c-1.2,0.2-2.4,0.9-3.6,1.5c-5.2,3.3-10.3,7.5-14.2,12.7
		l-3.3-2.7c5.3-5.4,11.2-9.5,17.6-12.5c-6.3-2-10.4,3.3-15.2,6c-5.6,3.9-13.6,5.7-20.3,3c-3.6-1.4-7.1-3.4-9.8-6.7
		c5.3,3.6,13.2,4,19.2,1.7c8.1-3.5,16.5-8,26.2-5.8c1.5,0,3,1.5,4.4,0.3c7.2-1.9,15.4-0.6,21.7,2.7l6.4,2.6c6,2.2,13.7,1.6,18.8-2
		C131,136,127.4,138.4,123.7,139.7"/>
	<path class="st1" d="M132.6,131.1c-9.3,3.5-18.7-0.8-27.6-2.2l-1.7-0.2v-0.1c4.3-1,8.4-2.2,11.8-5.3c5-4.8,9.4-9.8,15-13.5
		c-4.1,5.3-4.5,12.8-11.4,16.2c-1.7,1.1-3.8,1.3-5.6,2.1c2.5,0,4.8-0.8,7.2-1.1c9.1-1.4,19.6,0,25.9-7.7
		C144,124.7,138,129.2,132.6,131.1"/>
	<path class="st1" d="M149.5,105c-3.7,2.4-7.4,4.6-10.9,7.4v-0.3c5.4-9,2.8-21.4,6.1-31.2l1.2-3.3c-0.7,6.2,2,11.4,1.8,17.6
		c-0.2,3.7-1.4,7-3.4,10h0.3c2.7-3.5,4.7-7.2,7.8-10.5c4.8-4.6,9.7-9.4,10.3-15.8C164.4,89.5,158.4,98.9,149.5,105"/>
	<path class="st1" d="M134.8,45.4c-9.1-19.3-29-31.5-49.8-31.5c-9.1,0.2-17.5,2.2-25.1,6c-13.6,6.5-24.7,20.6-28.5,34.6
		c-6.1,23.5,2.2,47.4,22.4,61.2c14.5,10.4,37.7,12.4,54,4.4c14.5-6.1,26.9-21,30.7-35.8C142.2,71.7,140.5,56.5,134.8,45.4
		 M137.4,64.9c0.1,0.9-0.1,2.1,0.4,2.8l-8,0.1c-0.2,0.1-0.4,0.2-0.7,0.2l0.2-0.3c-0.2-6.2-1.8-11.9-4.2-17.2c-0.1-2.4-2.4-4-3.4-6
		c-1.8-1.2-2.3-3.4-4.3-4.5c-0.4-0.4-0.6-1.1-1.1-1.2l0.9-0.2c1.9-2,4-3.9,5.5-5.9C131.1,42.1,136.3,52.6,137.4,64.9 M114.9,94.8
		c-0.7-0.7-0.7-2-1.9-1.9c-0.4-0.1-0.6,0.3-0.6,0.7c0,0.2,0.1,0.4-0.1,0.6l-2.5-2.2c1.2-0.6,2.1-2.2,3-3.4c2.3-3.2,3.7-6.8,4.8-10.5
		c0.4,0.3,0.9,0.3,1.3,0.1c0.4-0.3,0.4-0.9,0.2-1.3l-0.9-1c0.1-1.7,0.6-3.3,0.4-5l0.6,0.2c2.6,0,5.2,0.1,7.7-0.1l-0.4,0.4
		c-0.6,10-4.1,19-11.1,26.3C115.7,96.7,114.7,95.9,114.9,94.8 M108.4,102.8c-1.4-1.3,0.9-2.4,1.3-3.7c-0.2-1.3-1.7-2-2.8-2.4
		c-0.5-0.3-0.4-1-0.4-1.4c0.5-0.5,1-0.9,1.2-1.6l0.2,0.5l3.4,3.5c0,0.8,0.1,1.5,0.9,1.8c0.4,0.2,0.8-0.2,1.1-0.1h-0.2
		c-1.5,1.6-3.3,2.8-4.9,4.1l-0.4,0.5C107.7,103.7,108.9,103.4,108.4,102.8 M93,59.9c-0.4,0.2-0.9,0.5-1.4,0.3
		c-0.5-0.5-1.1-1.2-1.9-1.2c-0.5,0.1-0.9,0.8-1.5,0.4c1-1.1,2.8-1.3,3.5-2.8c0.2-0.7,0.4-1.5,0.3-2.2c-0.3-0.3-0.7-0.6-1-0.3
		c-0.6,0.9-1.8,1.1-2.4,2.1l-2-0.7c-0.3-1.8,0.1-4.1-0.4-5.7c1.1,0.4,2.2,0.4,3.3,0.7c2.8,0.7,5.4,2,7.9,3.6
		c-0.6,0.2-1.2,0.9-1.7,1.3c0,0.5,0.5,0.4,0.7,0.7l0.5-0.2C96.1,58,93.3,57.7,93,59.9 M95.3,82.8c-0.1,1-1.5,1-2.1,1.7
		c-0.4-0.1-0.1-0.5,0-0.7C93.8,83.2,94.3,82.7,95.3,82.8 M110.9,56.4c0.9,0.2,1.5,1.3,2.4,1.5c0.8,1.3,1.1,2.7,1.5,4.2
		c-0.7,0.8-0.8,2.7-2.4,2.4c-0.4-0.9,0.7-1.4,0.5-2.2c0.3-0.2,0.7-0.3,0.8-0.7c-0.1-0.8-1.1-0.7-1.3-1.5c-0.3-0.5-0.9-0.4-1.3-0.6
		c-1.1-0.5-2,2.1-2.3,0.1c0.3-0.3,0.5-0.7,0.3-1c-0.9-0.5-1-1.8-2-2.3c-1.3,0-2.6-0.6-3.9-0.3c-0.9-0.2-1.9-0.8-2.5,0.1
		c-0.1,0.7-0.4,1.3-0.5,1.9c-0.3-0.2-0.6-0.5-0.7-0.8c2.4-2.7,5.2-5.5,7.8-8.1l0.1-0.3c1.3,1.6,2.8,3.2,3.7,4.9
		C111.2,54.6,109.1,55.7,110.9,56.4 M115.7,71c-0.5,1.5-0.4,3.2-0.8,4.7c-0.1,0.3-0.1,0.6-0.2,0.8c-0.5-0.9-0.9-2.2-1.9-2.7
		c-0.9-0.5-0.3-1.7-1.2-2.3l-0.9-0.9C112.2,71.2,114.1,71.1,115.7,71 M104.2,47.5c-1.5,1.7-3.3,3.1-4.6,4.9l-0.2-0.6
		c-3.6-3-7.8-4.4-12.4-5.1l-0.7,0.1l0.1-7.5l-0.3-0.6c3,0.5,6.1,0.9,8.9,1.9c3.6,1.3,6.9,3.2,9.9,5.7l0.7,0.3L104.2,47.5z
		 M96.7,88.5c2.4,0.2,4.7,0.8,6.9,1.6c0.6,0,1.2-0.1,1.5-0.5c-0.1-0.9,1-1.3,0.8-2.2c0.5-0.8,0.1-1.9,0.8-2.5c0.1-1-0.1-2-0.7-2.8
		c-0.6-0.4-1.2,0.1-1.7,0.2c-0.7,0.5-0.4,2-1.6,1.7c-0.3,0.4-0.8,0.4-1.2,0.3c-0.1-0.1-0.3-0.2-0.2-0.3c0.8-0.4,2.3-0.1,2.4-1.5
		c0.6-0.5,1.6-0.3,2.1-0.9c0.4-0.7,0.6-1.2,1.2-1.8c0.1-0.3,0.2-0.6,0.1-0.9c0.2,0.4,0.2,0.9,0.7,1.1c0.6,0.2,0.9-0.3,1.2-0.7
		c0-0.2,0.1-0.6,0.4-0.3c0.7,0.5,1.7,0.1,2.5,0.1c0.7-0.2,1.4-0.4,2.2-0.4c-0.7,3-2.2,5.9-4,8.5c-0.7,0.9-1.3,1.8-2.1,2.6
		c-0.2-0.6-0.2-1.5-0.8-2.1l-0.3,0.1c-0.4,0.9-1.3,1.6-1.2,2.7c-0.7,1-2.3,0.2-3.3,0.7c-1.2,0.4-1.8-0.8-2.8-1
		c-1.1-0.4-2.3-0.5-3.3-1C96.3,88.7,96.4,88.5,96.7,88.5 M91.5,17.2c11,1.5,21,5.9,29.3,13.9l-0.9,0.4c-1.5,1.6-3.3,3-4.2,4.8
		c-0.1-0.5-0.9-0.9-1.1-1.4c-0.2-1.5-1.6-3-2.9-3.7c-1.1-0.2-1.3-1.8-2.7-1.3c-1.1-0.9-2.5-0.2-3.6,0.3v0.1
		c-5.3-3-11.1-4.8-17.4-5.3c-0.3,0-0.5,0.2-0.8,0.2c0.3-0.2,0.2-0.9,0.1-1.3c-0.2-0.3-0.5-0.6-0.9-0.4c-0.1,0.2-0.3,0.4-0.3,0.7
		c0.2-2.5,0.3-5.4-0.1-7.6C87.8,17.1,89.7,16.9,91.5,17.2 M89.4,28.3c4.8,0.6,9.1,1.9,13.4,3.8c0.6,1,1.9,1.4,2,2.7
		c-0.6,1.7,2.2,1.7,0.9,3.4c-0.1,0.5,0.4,0.9,0.6,1.3c0.2,0.5-0.1,1.2,0.5,1.5c1,0.2,1.4-1.1,2.4-0.7c1.3,0.9,1.6,2.5,1.6,3.9
		c0.2,0.9,0.9,1.5,1.7,1.8c1.6-0.5,0.9,1.3,2,1.8c1.3,0.2,1.9,1.8,3.3,1.7c1.2,0.9,1.9,2.3,3,3.4c0,0.3,0.1,0.5,0.3,0.6
		c0.7,0.2,1.1-0.3,1.7-0.3c2.1,4.4,3.2,9.2,3.6,14.3l0.3,0.5c-2.7,0-5.4,0-8.1,0.2c-0.1-1.6,0-3.2-0.9-4.5c0.4-0.8,0.5-1.9,0.5-2.8
		c-0.2-0.4-0.5-0.1-0.7,0c-0.9,0.9-1,2-1.5,3c-0.8,1.1-0.9,2.7-0.4,3.9l0.3,0.3l-3.1-0.1c0.7-0.5-0.6-1.4,0.1-2.1l1.4-0.3
		c0.4-1,1.5-1.8,1.5-3c0.6-0.7,1.2-1.7,0.7-2.7c-0.7-1.5,1.1-3.1-0.2-4.5c0.1-0.4-0.2-1-0.7-1c-0.4-0.1-0.9,0-0.9-0.6
		c0.3-0.4,0.9-0.8,0.7-1.4c-0.3-0.4-0.8-0.1-1.3-0.1c-0.1-0.7,1.1-1.4,0-2c-0.7-0.1-1.2,0.8-1.9,0.5c-0.3-0.3-0.6-0.7-0.3-1.1
		l-1.7-2c-0.2-0.2-0.6,0.1-0.7-0.3c0.1-1.6-1.9-2.5-2-4.2c-0.6-0.5-0.1-1.6-0.9-2c-0.4-0.3-0.9-0.7-1.5-0.5c-0.7-1-1.5-2-2.4-2.8
		c-0.3-0.1-0.5,0.1-0.6,0.2c0.1,0.8,1,1.2,1,2.1c-0.1,0-0.2,0-0.3,0.1c0.1,0.8,0.8,1.4,1.3,2c-4.3-3.3-9.4-5.1-14.9-6
		c-1.1,0-2.1-0.5-3.2-0.1c0.3-2.4,0.1-5.1,0.1-7.7L86,27.8C87.1,28.4,88.2,28.1,89.4,28.3 M84.7,60.1l0.5,0.2
		c-0.6,0-1.2-0.3-1.7,0.1c-0.3,0.2-0.1,0.7,0,1c1,0.4,1.2,2,2.5,1.4c0.6,0.1,1.2,0.2,1.4,0.9c0.8,0.3,0.9,1.7,2,1.4
		c-0.1,0.5-0.2,1.4,0.4,1.9c-0.2,0.5-0.8,0.7-0.7,1.3C89,68.5,88.8,68.7,89,69c1,0.1,1,1.3,1.4,1.9c-0.2,0.8,0.1,1.6,0.7,2.1
		c-0.1,0.9-0.5,1.7-0.9,2.6c-1.1,0.5-2.8-0.8-3.2,1.1c-0.6,0.7-0.1,2.1-1.3,2.2c-2.3,0.2-4.4-0.3-6.1-1.7c1.1-0.6,3.1,0.2,3.5-1.5
		c0.3-0.3,0.4-0.7,0.3-1.1c0.5-0.5,0.7-1.2,1-1.8c-0.4-0.4-0.2-0.6-0.1-1.1c-1.1-1.2-2.7-0.5-4.1-0.5c-0.9,0.5,0,1.4-0.6,2
		c-1.1,0.1-1.1,1.2-1.9,1.9c-0.4-0.2-0.8-0.8-0.7-1.2l0,0c-0.1,0.2,0.1,0.4,0.3,0.5c1,0.2,0.7-1,1-1.6c0.2-0.7,1.7-1.6,0.5-2
		c-0.1-0.3,0.2-0.6-0.2-0.8c-0.4,0.2-1,0.2-1.1,0.7c0.2,0.5,0,1-0.4,1.3h-0.2c0.1-0.3-0.2-0.5-0.4-0.7c-0.6,0-1.2,0.5-1.8,0.3
		c-0.9,0.2-1.9,0.4-2.8,0.4c-0.1-0.5,0.7-0.4,0.9-0.9c-0.1-0.8,0.4-1.3,0.8-1.9c0.2-0.2,0.6-0.1,0.9-0.1c0.2,0.2,0.4,0.4,0.8,0.3
		l0.3-0.5c0.8,0.5,0.4,2.9,2,1.9c0.2-1,0-2.2,0.5-3.2c-0.4-0.9,0.6-1.2,0.9-1.8c0.8,0.1,0.8-0.9,1.1-1.3c1.3-0.4,2.7-0.7,3.5-2.1
		c-0.3-0.7-0.1-1.7-0.7-2.2C83.3,59.9,84.3,59.6,84.7,60.1 M83.5,111.4l-0.8-0.5c-10.3-0.5-19.1-4.7-26.7-11.5
		c1.2-0.1,1.7,1.5,3.1,1.1c1.5-0.2,2.7-1.4,4.2-1.1c0.8,0,1.7,0,2.2-0.7c0.3-0.8-0.6-1.2-0.8-1.9c5.2,3.9,11.1,6.3,17.8,6.7l0.7-0.3
		v7.3L83.5,111.4z M54.5,71.5l-0.4-0.7c0.8,0.6,1.7,0.4,2.7,0.2c-1.4,0.4-0.9,2.1-1.4,3.1c-0.1,0.5,0.7,0.6,0.6,1.1
		c-0.7,0.3-0.7,1.1-1,1.6C55.3,75.1,54.6,73.4,54.5,71.5 M46.1,81.1c-0.7,0.1-0.5,0.9-0.9,1.3c0.1-1.9-0.8-3.8-1-5.8l-0.6-5.1
		l-0.3-0.4c2.4,0.4,5.1,0.1,7.7,0.2l0.6-0.3c-0.2,1.2-0.3,3,0.6,4.1c-0.3-0.3-0.7-1.3-1.5-1.3c-1.4,0.1-1.5,1.9-2.9,2
		c-1.2,1-1.3,2.3-1.6,3.6C46.7,80,45.8,80.5,46.1,81.1 M51.8,68.3L51,68l-7.6,0.1c0.7-8.5,3-16.2,7.9-22.9l3-3.8v-0.5
		c1.8,2.1,3.7,4,5.8,5.8c-5.4,5.9-8.2,12.9-8.8,20.7C51.5,67.8,51.5,68.1,51.8,68.3 M83.1,36.1c-1.4-0.3-2.9,0.2-4.4,0.3
		c-6.2,1.3-11.9,3.9-16.6,8.4L62,44.3c-1.8-1.7-3.5-3.9-5.6-5.2c1.8-1,3.3-2.6,5.1-3.8c6.4-4.3,13.6-6.7,21.6-7.2
		C82.8,30.7,83,33.4,83.1,36.1 M70.7,77.8c0,0.3,0.4,0.5,0.7,0.3c0.3-0.4-0.7-1.1,0.1-1.4c0.4,0.5,0.2,1.3,0.5,1.9
		c0.2,0.3,0.3,0.7,0.3,1.1c-0.7,0.9-1.8,1.7-2.3,2.7c-0.5-1.2-1.6-2.2-2.1-3.5c-0.8-1.4-1.2-3.1-2-4.5c0.7,0.8,2.4-0.1,2.4,1.5
		c0.1,0.1,0.3,0.1,0.4,0.1c0.2-0.2,0.2-0.3,0.5-0.1c0.1,0.3,0.8,0.4,0.3,0.7C69.6,77.1,70.1,77.7,70.7,77.8 M78.9,99.3l1.3,0.6
		c-4.8-1.2-10-2.8-14.1-6.3c-0.7-0.4-1.2-1.3-2-1.4c1.9-1.6,3.9-3.6,5.5-5.6c0.7,1.3,2.3,2,3.5,2.9c2.1,1,4.3,2.7,6.7,2.2
		C79,92,78.3,92.4,77.7,93c-0.3,0.7-0.2,1.8-1.2,2.2C76.5,96.9,78,98.2,78.9,99.3 M61.3,89.6L61,87.9c-1.6-1.4-1.1-3.8-1.3-5.6
		c-1.1-0.9-0.2-2.3-1-3.3c0-1.6-2.5-2.2-1.7-3.9c-0.3-0.4-0.7-1-0.3-1.6c0.5-0.6,1.6,0.1,1.9-0.8l0.2-1.5c0.6-0.3,1.4,0.4,1.7-0.4
		c0.6-1.4-2-3.1,0.2-3.8c0.8-0.1,1.8-0.3,2.1,0.7c0.2,1.1,0.4,2.2,0.1,3.3c0.7,0.3,0.1,0.9,0.1,1.4c-0.4,0.2-0.9,0.6-1.4,0.5
		c-0.2-0.4-0.6-1-1.1-0.9c-0.4,0.6,0.2,1.2,0.1,1.8c-0.1,0.4,0,0.8-0.3,1.1c-0.2-0.1-0.4-0.2-0.7-0.2c-0.5,0.2-0.2,0.8-0.1,1.1
		c0.5,0.3,0.8,0.8,1.4,0.8l0.3-0.3c-0.1-0.9,0.3-1.6,0.4-2.5l0.8,0.4c0.7,3.4,2.3,6.5,4.3,9.5l1,1c-2.5,2.2-5,4.8-7.1,7.2V92
		c0-0.1-0.1-0.5-0.4-0.4C59.9,90.4,61.6,90.7,61.3,89.6 M65.2,56.9c-0.8,0.4-1.4,1.2-1.9,1.9c-0.7,0.4-1.5,0.4-2.1,1.1
		c0,0.3,0.4,0.7,0,0.9c-0.6,0.6-2-0.2-2.3,1c-0.1,1-1.3,1.6-1.2,2.7c-0.7,0.4-0.5,1.3-0.5,2c0.4,0.4-0.2,1.2,0.5,1.6
		c-1.1-0.1-2.5-0.3-3.5,0.1c0.5-1.2,0.4-2.8,0.7-4.1c1-5.7,3.6-10.7,7.4-15.3c1.9,1.9,4,4.1,6.1,5.7C66.8,54.6,66.8,56.9,65.2,56.9
		 M82.2,86.7c-0.4,0.6-0.1,1.6-0.3,2.3c-3.7-0.6-7-2.2-9.9-4.6c1.7-1.8,3.9-3.6,5.1-5.5c0.2,0.9,1.2,1.3,1.9,1.7
		c1.5,0.7,3.3,1.7,4.9,1c-0.1,0.1-0.2,0.3-0.4,0.3c0.5,0.5-0.4,1,0.2,1.4c0.1,0.4-0.4,0.3-0.4,0.6c0.3,0.5-0.1,1.4,0.7,1.5
		c0.2,0.3,0,0.7-0.3,0.7C83.2,86.1,82.5,86.1,82.2,86.7 M73.3,78.4c0.5-0.5,1-1.1,1.1-1.8l0.9,0.5C74.5,77.1,74.1,78,73.3,78.4
		L73.3,78.4z M81,55.9c-0.2-0.4,0.3-0.8-0.1-1c-1.3,0.6-0.8,2-1.7,2.9c-0.1,0.7-1.1,0.4-1.5,0.7c-0.3-0.5-1-0.5-1.5-0.2
		c-0.7,0-0.8-1.4-1.5-0.7c-0.2,0.2-0.1,0.7-0.6,0.5c-0.1-0.2-0.3-0.2-0.4-0.3c0-0.4,0.7-0.4,0.4-0.9c-0.5-0.9-1.6-0.7-2.2-1.4h-0.6
		c3.3-3.5,7.3-5,11.8-5.6c-0.1,2-0.2,4.2,0.4,6C82.8,55.2,81.9,56.2,81,55.9 M83.2,46.9c-1.4-0.3-2.8,0.3-4.2,0.5
		c-3.1,0.8-5.8,2.5-8.4,4.4c-0.1,0.2-0.3,0.4-0.4,0.6c-1.9-1.7-3.8-4-5.9-5.5c5.3-4.4,11.4-7.3,18.4-7.8l0.5-0.3
		C82.9,41.5,82.9,44.3,83.2,46.9 M53.3,27.4C62,21.1,71.9,17.3,83,16.9l-0.2,0.8l0.1,6.6l0.3,0.7C72.3,25.4,63,29.4,54.9,36.8
		l-0.1,0.4c-1.9-2-3.9-4.3-6.1-5.9h-0.2C50.1,30.3,51.6,28.5,53.3,27.4 M32.7,63.2C34.1,51.8,39,41.8,46.8,33l0.2,0.7
		c1.9,1.8,3.8,3.8,5.6,5.5c-1.6,1.1-2.5,2.8-3.7,4.2c-4.9,7-7.8,14.9-8.3,23.7l0.2,1.1C38,68,35,68,32.3,68.2
		C32.6,66.5,32.4,64.8,32.7,63.2 M39.1,95.5c-4-7.4-6.3-15.4-6.8-24.3l7.7,0.1l0.7-0.3c-0.1,0.4-0.1,0.9-0.1,1.5l-0.1-0.1
		c-0.2,0.2,0.2,0.2,0.1,0.4c0.1,2.9,0.7,5.7,1.3,8.4l0.4,0.6c-0.6-0.5-0.8-1.2-1.2-1.7c-0.6,0.1-1.3,0.3-1.8,0.7
		c0.3,0.8-0.5,0.5-0.8,0.8c-0.1-0.2-0.3-0.4-0.6-0.5c-0.6,0-1.2,0.1-1.4,0.7c0.1,0.4-0.4,0.6-0.5,0.9c-0.2,1.2-0.6,2.9,0.3,3.9
		c0,0.9,0.5,1.7,1.1,2.3c0.3,0,0.4-0.2,0.6-0.3c0.7,0.6,1.1,1.9,2.2,1.7c0.3-0.2,0.2-0.5,0.3-0.7c0.6,0.6,0.8,1.8,1.9,1.7
		c0.3,0.3,0.4,0.8,0.9,0.8c1.2-0.3,0.7,1.3,1.6,1.8c0.7,0.4,1,1.4,2,0.9l0.3-0.4c0.3,0.2,0.1,0.8,0.3,1.1c0.5,0.9,1.4,1.5,2.3,1.8
		c0.8,0.9,1.6,2,2.6,2.7l-0.4,0.1l-5.5,5.7C43.9,102.4,41.1,99.1,39.1,95.5 M78,121.7c-11.1-1.5-20.8-6.3-29.5-13.8l5.7-5.7l0.1-0.3
		c7.9,7.6,17.4,11.4,28.2,12.2l0.9-0.2l-0.3,0.4v7.5l0.4,0.7C81.8,121.8,79.8,122,78,121.7 M84.7,90.4c-0.6,0.1-1.1,0-1.6-0.2
		c-0.3,0-0.2-0.3-0.3-0.5c0.8,0,1.2-0.9,2-0.8c0.5-0.5,0.6-1.2,1.3-1.4c-0.2-0.7,0.7-0.2,0.9-0.7c0.3-0.2,0.6-0.5,0.9-0.3
		c0.6,0.8,1.7,0.5,2.2,1.4c0.3,0.1,0.4-0.2,0.3-0.4v-0.3c0.9-0.1,1.3,1.2,2.3,0.3c0.2-0.2,0.2-0.6,0-0.8c-0.1-0.1-0.2-0.1-0.3-0.2
		c0.6-0.3,1,1,1.8,0.5c0.6-0.5,1.1-1.2,1.9-1.2l0.2,0.3c0.1,1.7-1.3,2.7-2.5,3.4c-0.8,0.3-2.3,0.2-2.2,1.5c-0.9,0.8-1.8-0.5-2.9-0.1
		c-0.5-0.3,0-1-0.7-1.2C86.9,90.1,85.5,89,84.7,90.4 M86.8,104.4c1,0.4,2.7-0.4,3.3,0.7c-0.3,0.6-0.8,1.2-0.6,2c0.4,1,1,2.4,2.3,2.5
		c0.3,0.4,0.8,0.6,1.2,0.7c-2.2,0.4-4.6,0.2-6.6,0.9c0.3-2.2,0-4.6,0-6.8l-0.4-0.6C86.3,103.8,86.5,104.2,86.8,104.4 M86.9,122.1
		l-0.5,0.3c0.2-2.8,0.2-5.9,0-8.7c1.4,0.5,2.8-0.1,4.3-0.1l4.2-0.7c2.1,0.4,3.6,3.8,5.9,1.7c0.8-1,2.2-0.9,2.7-2.2
		c1.4-0.5,1.7-1.9,2.7-2.8c0.9-2.6,3.8-3,5.6-4.8c1.3-1.2,3-2.1,3.8-3.7l0.1,0.7l5.8,5.6C111.7,116.4,100.2,121.5,86.9,122.1
		 M137.6,71.4c-0.5,12.9-5.3,24.1-13.8,33.7l-0.2,0.4c-1.7-1.9-4.1-4.4-6.2-6c1.3-0.9,2.2-2.3,3.3-3.6c5.3-7.2,8.3-15.3,8.8-24.5
		l-0.3-0.7l0.5,0.3l7.9-0.1l0.4-0.2L137.6,71.4z"/>
	<path class="st1" d="M109.5,28c0,0.3,0,0.6,0.2,0.8c1.2,0.4,1.3,2.1,2.8,1.7c0.4-0.5-0.3-1-0.1-1.7c-0.2-0.6-0.7-0.8-1.2-1
		C110.5,28.5,110,27.4,109.5,28"/>
	<path class="st1" d="M87.4,23.3c1.5,1.9,4,0.8,5.8,0.5c1.3,0.6,2.6-0.1,3.6-0.9v-0.2c-0.9-1.3-2.7-1.5-4.3-1.7l-4,1.7
		c-0.3-0.1-1-0.3-1.2,0.1C87.2,23,87.3,23.2,87.4,23.3"/>
</g>
<line class="st5" x1="179.1" y1="8.1" x2="179.1" y2="152.1"/>
</svg>
